<?xml version="1.0" encoding="UTF-8"?>
<svg version="1.1" xmlns="http://www.w3.org/2000/svg" width="1107" height="288">
<path d="M0 0 C1.25284286 -0.0071553 2.50568573 -0.01431061 3.79649353 -0.02168274 C5.17758154 -0.02452276 6.55866981 -0.02723452 7.9397583 -0.02983093 C9.40058044 -0.03610078 10.861401 -0.04274804 12.32221985 -0.04974365 C17.11561991 -0.07074136 21.9090201 -0.08114863 26.70245361 -0.09111023 C28.35913357 -0.09516073 30.01581336 -0.09927774 31.67249298 -0.10346031 C39.46530339 -0.12251014 47.25810439 -0.13673621 55.0509336 -0.14507228 C64.00868583 -0.15481524 72.96618901 -0.18105824 81.92385364 -0.22157317 C88.86938759 -0.25189422 95.81485087 -0.26655657 102.76044965 -0.26985329 C106.89754891 -0.27218749 111.03438213 -0.28093103 115.17140961 -0.30631447 C153.95791837 -0.53203768 153.95791837 -0.53203768 171.53057861 8.27217102 C172.31932373 8.65760071 173.10806885 9.0430304 173.92071533 9.44013977 C195.32176653 20.27787952 213.48946466 40.45494123 221.01617432 63.39057922 C222.01553176 66.62446787 222.94884232 69.86674808 223.78057861 73.14717102 C223.96169189 73.85526917 224.14280518 74.56336731 224.32940674 75.29292297 C230.13611237 99.47785193 226.11184115 125.69129561 213.78057861 147.14717102 C200.76762612 168.2744357 180.96770401 184.8095005 156.78057861 191.14717102 C130.26640595 197.04803547 103.95891002 193.28962947 80.62823486 179.06513977 C58.43359177 164.11648441 43.2353116 142.34239493 38.03057861 116.08467102 C36.85130568 109.74438029 36.41213001 103.5881984 36.78057861 97.14717102 C36.1863208 97.19357727 35.59206299 97.23998352 34.97979736 97.28779602 C25.31975264 97.70845116 17.8471753 95.26030474 10.40557861 89.02217102 C4.60203093 83.38496706 0.59469235 77.41069592 0.34307861 69.14717102 C0.43878949 65.99434217 0.46507691 65.46267273 2.78057861 63.14717102 C7.03131505 61.90970735 11.31055132 62.02416284 15.69854736 62.06904602 C16.47892868 62.07345703 17.25931 62.07786804 18.06333923 62.08241272 C19.75179839 62.09323957 21.44024227 62.10670147 23.12866211 62.12251282 C25.81812325 62.14752012 28.50755477 62.16425586 31.19708252 62.18037415 C35.87705586 62.21313978 40.55599219 62.27642453 45.2354126 62.35469055 C47.16370105 62.38335541 49.09211695 62.40433617 51.02056885 62.41816711 C53.85392953 62.43952947 56.68591217 62.48601294 59.51885986 62.53779602 C60.37715897 62.53902466 61.23545807 62.5402533 62.11976624 62.54151917 C66.13408463 62.64016728 68.29948731 62.85529652 71.80108643 64.97969055 C74.57250414 68.01430408 74.70766488 70.07258012 74.78057861 74.14717102 C74.00323486 77.73310852 74.00323486 77.73310852 72.84307861 81.52217102 C68.10642607 98.57492265 70.73898923 115.43447198 78.78057861 131.14717102 C80.8756751 134.38970422 83.20799502 137.27319689 85.78057861 140.14717102 C86.67389893 141.17971008 86.67389893 141.17971008 87.58526611 142.23310852 C98.98579365 154.57973793 115.1176011 160.2926594 131.60186768 161.12666321 C146.95199874 161.27115122 162.87546375 154.99770731 173.82305908 144.33003235 C175.16590062 142.9585255 176.47426258 141.55351125 177.78057861 140.14717102 C178.46764893 139.41627258 179.15471924 138.68537415 179.86260986 137.93232727 C189.98603442 126.0885822 194.31249715 109.66025218 193.60479736 94.34248352 C192.47816649 81.01941846 188.04651124 68.76281039 179.78057861 58.14717102 C179.29331299 57.4742804 178.80604736 56.80138977 178.30401611 56.10810852 C173.30709065 49.73272086 166.77601668 46.05281262 159.78057861 42.14717102 C159.00971924 41.7114679 158.23885986 41.27576477 157.44464111 40.82685852 C143.82485349 33.55938291 127.10455668 34.99851852 112.08917236 35.08467102 C110.50818548 35.08965751 108.92719668 35.09406249 107.34620667 35.09793091 C104.01755656 35.10652212 100.68892733 35.11751221 97.36029053 35.13023376 C88.71265658 35.16125153 80.064977 35.15963616 71.41729736 35.15888977 C70.56466938 35.15883123 69.7120414 35.1587727 68.8335762 35.15871239 C63.14923959 35.15785451 57.46491106 35.15409779 51.78057861 35.14717102 C51.08388313 35.14634773 50.38718765 35.14552444 49.66938019 35.14467621 C42.24621237 35.13430854 34.82444438 35.09720215 27.40194702 34.99458313 C25.50886464 34.97156571 23.61565715 34.95704608 21.72244263 34.95161438 C10.94538134 34.91363569 3.05167248 34.44251777 -5.45379639 27.26045227 C-10.50750436 21.2559178 -14.65527011 15.09622994 -15.78192139 7.20967102 C-15.21942139 4.14717102 -15.21942139 4.14717102 -13.53192139 2.27217102 C-9.14427166 0.13763872 -4.82007719 0.01895271 0 0 Z " fill="#2267F2" transform="translate(60.21942138671875,39.85282897949219)"/>
<path d="M0 0 C9.57 0 19.14 0 29 0 C32.37447875 7.87378375 32.37447875 7.87378375 33.16333008 11.04150391 C33.43457703 12.1113855 33.43457703 12.1113855 33.71130371 13.20288086 C33.8955188 13.9531958 34.07973389 14.70351074 34.26953125 15.4765625 C34.47106812 16.27570068 34.67260498 17.07483887 34.88024902 17.89819336 C35.30832709 19.59683744 35.73398344 21.29609341 36.15737915 22.99591064 C37.25906125 27.41711123 38.37885437 31.83370099 39.5 36.25 C39.82741936 37.54111191 39.82741936 37.54111191 40.16145325 38.85830688 C41.96794591 45.94826027 43.93852173 52.98035086 46.01391602 59.99609375 C48.07582334 67.04595922 49.76223485 74.17225553 51.3527832 81.34228516 C51.5405835 82.17034668 51.72838379 82.9984082 51.921875 83.8515625 C52.08268555 84.58197754 52.24349609 85.31239258 52.40917969 86.06494141 C52.98843083 88.29415931 52.98843083 88.29415931 55 91 C57.53530368 81.50405823 60.0626442 72.00605131 62.5776062 62.50469971 C63.14373178 60.36676055 63.71063993 58.2290298 64.27758789 56.09130859 C66.215972 48.77708962 68.14400949 41.46038203 70.04766846 34.13703918 C70.95480525 30.64756897 71.864963 27.15888903 72.77508545 23.67019653 C73.21474243 21.98090179 73.65278634 20.29118636 74.08917236 18.6010437 C74.70000969 16.2355807 75.31625965 13.87158692 75.93359375 11.5078125 C76.11344315 10.80516769 76.29329254 10.10252289 76.47859192 9.37858582 C77.37598482 5.9637351 78.4054261 3.1891478 80 0 C89.57 0 99.14 0 109 0 C113.50852783 11.27131957 113.50852783 11.27131957 114.7109375 15.19921875 C114.98292969 16.08601318 115.25492187 16.97280762 115.53515625 17.88647461 C115.81230469 18.81081299 116.08945312 19.73515137 116.375 20.6875 C116.67535156 21.68080322 116.97570312 22.67410645 117.28515625 23.69750977 C119.61899994 31.5108393 121.70926078 39.37429989 123.72338867 47.27514648 C125.82194964 55.4605818 128.15190448 63.56823171 130.55273438 71.66967773 C130.82794922 72.59852783 131.10316406 73.52737793 131.38671875 74.484375 C131.65403809 75.38607422 131.92135742 76.28777344 132.19677734 77.21679688 C133.31508408 81.0917807 134.34403613 84.98932306 135.36254883 88.89160156 C135.80862719 90.9660307 135.80862719 90.9660307 137 92 C137.14920898 91.40316406 137.29841797 90.80632812 137.45214844 90.19140625 C137.6690332 89.32386719 137.88591797 88.45632812 138.109375 87.5625 C138.49065552 86.03725708 138.49065552 86.03725708 138.87963867 84.48120117 C139.47339914 82.10632585 140.06731868 79.7314903 140.66137695 77.35668945 C142.51437763 69.94834087 144.36455646 62.53929703 146.21121216 55.12936401 C147.27044926 50.87977183 148.33067734 46.63042714 149.39099121 42.38110352 C149.91705835 40.27183631 150.44270134 38.16246326 150.96789551 36.05297852 C155.85013887 16.44479577 155.85013887 16.44479577 158.30078125 7.11328125 C158.60798096 5.94192627 158.91518066 4.77057129 159.23168945 3.5637207 C160 1 160 1 161 0 C163.14558827 -0.08775605 165.29404421 -0.10695219 167.44140625 -0.09765625 C168.74658203 -0.09443359 170.05175781 -0.09121094 171.39648438 -0.08789062 C172.7851569 -0.07953401 174.17382877 -0.07106905 175.5625 -0.0625 C176.95507656 -0.05748666 178.34765481 -0.05292347 179.74023438 -0.04882812 C183.1601987 -0.03699434 186.58007844 -0.0205088 190 0 C189.46064752 4.13281612 188.81299533 8.08524783 187.64453125 12.0859375 C187.35916504 13.07352051 187.07379883 14.06110352 186.77978516 15.07861328 C186.46058105 16.1664209 186.14137695 17.25422852 185.8125 18.375 C185.28105499 20.20942312 184.74964762 22.04385727 184.21899414 23.87850952 C183.82259091 25.24832368 183.42559505 26.61796646 183.02807617 27.98745728 C181.23508049 34.16845244 179.46878831 40.35691189 177.70703125 46.546875 C171.94721814 66.77764667 166.16991659 87.00170957 160.19580078 107.17041016 C159.8295459 108.40710449 159.46329102 109.64379883 159.0859375 110.91796875 C158.56725098 112.6666626 158.56725098 112.6666626 158.03808594 114.45068359 C157.30386432 116.96105843 156.58196837 119.4724717 155.87597656 121.99072266 C155.69346344 122.63987137 155.51095032 123.28902008 155.32290649 123.95783997 C154.81857916 125.75792787 154.31857834 127.55922629 153.81884766 129.3605957 C153 132 153 132 152 133 C149.70848583 133.08790975 147.41427476 133.10694038 145.12109375 133.09765625 C144.09110008 133.09553383 144.09110008 133.09553383 143.04029846 133.09336853 C140.83932199 133.08775479 138.63844591 133.07520007 136.4375 133.0625 C134.94856917 133.05748676 133.45963676 133.05292355 131.97070312 133.04882812 C128.31376925 133.03778093 124.65689442 133.02050713 121 133 C118.85520959 128.2074014 117.11241031 123.42963702 115.65234375 118.3828125 C115.43936646 117.66033325 115.22638916 116.937854 115.00695801 116.19348145 C114.55038364 114.64314276 114.09571262 113.09224248 113.64279175 111.54083252 C112.43686706 107.41018434 111.21731244 103.28355344 110 99.15625 C109.75205185 98.31405914 109.5041037 97.47186829 109.24864197 96.60415649 C106.4848595 87.22671919 103.6440081 77.87295815 100.79684448 68.52056885 C100.38769061 67.17648945 99.97871861 65.83235467 99.56994629 64.48815918 C99.03744543 62.73751022 98.50399226 60.987151 97.97045898 59.23681641 C96.94977303 55.83247569 95.96932514 52.41927077 95 49 C92.26473157 55.51200974 89.99243141 62.00348719 88.125 68.8125 C87.60563414 70.66801505 87.08609818 72.5234825 86.56640625 74.37890625 C86.30617676 75.31492676 86.04594727 76.25094727 85.77783203 77.21533203 C84.56234666 81.56681543 83.31066867 85.90780283 82.0625 90.25 C80.40124738 96.0359702 78.76723979 101.82829344 77.171875 107.6328125 C76.86241943 108.75397461 76.55296387 109.87513672 76.23413086 111.03027344 C75.63438018 113.20685205 75.03862631 115.38453724 74.44750977 117.56347656 C74.17221436 118.56088867 73.89691895 119.55830078 73.61328125 120.5859375 C73.37391846 121.4629834 73.13455566 122.3400293 72.88793945 123.24365234 C71.81449392 126.57584923 70.3790451 129.7822281 69 133 C58.44 133 47.88 133 37 133 C35.25968598 127.77905793 33.55320879 122.63111789 32.01953125 117.359375 C31.6642334 116.13879395 31.30893555 114.91821289 30.94287109 113.66064453 C30.56589034 112.3571514 30.18910498 111.05360175 29.8125 109.75 C29.61746887 109.0769281 29.42243774 108.4038562 29.22149658 107.71038818 C25.33743774 94.29992765 21.61820732 80.8463339 17.92773438 67.38134766 C16.5031279 62.18903196 15.06979743 56.99923404 13.625 51.8125 C13.35276611 50.83394043 13.08053223 49.85538086 12.80004883 48.84716797 C11.03875895 42.56621897 9.20759402 36.30849596 7.33984375 30.05859375 C7.11039062 29.28840408 6.8809375 28.51821442 6.64453125 27.72468567 C5.50480943 23.89949431 4.3584707 20.07654704 3.19970703 16.25708008 C2.77998544 14.85376449 2.36053889 13.4503666 1.94140625 12.046875 C1.56701416 10.80776367 1.19262207 9.56865234 0.80688477 8.29199219 C0 5 0 5 0 0 Z " fill="#454648" transform="translate(330,85)"/>
<path d="M0 0 C1.12591553 0.00523682 2.25183105 0.01047363 3.41186523 0.01586914 C4.62680664 0.0190918 5.84174805 0.02231445 7.09350586 0.02563477 C8.37290039 0.03401367 9.65229492 0.04239258 10.97045898 0.05102539 C12.2537207 0.05553711 13.53698242 0.06004883 14.85913086 0.06469727 C18.04211921 0.07652994 21.22501661 0.09301471 24.40795898 0.11352539 C25.3595827 2.96839654 25.52959037 4.71806856 25.52148438 7.67675781 C25.52140884 8.59748581 25.52133331 9.51821381 25.52125549 10.46684265 C25.51609421 11.45755264 25.51093292 12.44826263 25.50561523 13.46899414 C25.50420029 14.48576736 25.50278534 15.50254059 25.50132751 16.55012512 C25.49572605 19.80045503 25.48317331 23.05071627 25.47045898 26.30102539 C25.46544417 28.50349835 25.46088123 30.7059724 25.45678711 32.90844727 C25.44575615 38.31016344 25.42901661 43.71183951 25.40795898 49.11352539 C25.95305618 48.62588715 26.49815338 48.1382489 27.05976868 47.63583374 C28.13571541 46.68192245 28.13571541 46.68192245 29.23339844 45.70874023 C30.29854424 44.76072037 30.29854424 44.76072037 31.38520813 43.79354858 C33.67082832 41.89519569 35.7983536 40.73325455 38.59545898 39.73852539 C39.79235352 39.29379883 39.79235352 39.29379883 41.01342773 38.84008789 C51.12232946 35.77278655 61.15299813 37.14355666 70.68139648 41.54321289 C79.67599549 46.72348338 84.30027394 54.67073215 87.45654297 64.31884766 C89.06628929 70.92078729 88.67423254 77.76505862 88.63842773 84.51586914 C88.63723398 86.00419576 88.63678319 87.49252314 88.63703918 88.98085022 C88.63548278 92.08314808 88.62725265 95.18532915 88.61376953 98.28759766 C88.59667673 102.2713451 88.59295859 106.25496585 88.59371471 110.23874569 C88.59344359 113.30383013 88.58797337 116.36888668 88.58071327 119.43396187 C88.57752551 120.90403597 88.57555895 122.37411323 88.57481956 123.8441906 C88.57266304 125.8883261 88.56313615 127.93244989 88.55322266 129.9765625 C88.54941086 131.14046005 88.54559906 132.3043576 88.54167175 133.50352478 C88.40795898 136.11352539 88.40795898 136.11352539 87.40795898 137.11352539 C85.49337617 137.21324325 83.57513581 137.24433128 81.65795898 137.24633789 C80.49264648 137.24762695 79.32733398 137.24891602 78.12670898 137.25024414 C76.89952148 137.24637695 75.67233398 137.24250977 74.40795898 137.23852539 C73.18077148 137.24239258 71.95358398 137.24625977 70.68920898 137.25024414 C68.94124023 137.24831055 68.94124023 137.24831055 67.15795898 137.24633789 C66.08030273 137.24520996 65.00264648 137.24408203 63.89233398 137.24291992 C61.40795898 137.11352539 61.40795898 137.11352539 60.40795898 136.11352539 C60.2952183 134.37125577 60.25116134 132.62449489 60.234375 130.87866211 C60.22088516 129.76014862 60.20739532 128.64163513 60.1934967 127.48922729 C60.18305832 126.26954254 60.17261993 125.04985779 60.16186523 123.79321289 C60.12891288 121.23070965 60.09570148 118.66820974 60.06225586 116.10571289 C60.01385866 112.05041746 59.97013358 107.99509379 59.93115234 103.93969727 C59.89134867 100.03655363 59.83980583 96.13369738 59.78686523 92.23071289 C59.77845108 91.02317352 59.77003693 89.81563416 59.7613678 88.57150269 C59.67553801 82.70531601 59.41130675 77.64412277 57.40795898 72.11352539 C57.16045898 71.35040039 56.91295898 70.58727539 56.65795898 69.80102539 C54.73560204 67.20584351 52.47541596 66.95959627 49.40795898 66.11352539 C43.60645633 65.50802875 38.26581526 65.33127012 32.84545898 67.61352539 C25.86615387 74.77178705 25.81889803 82.0258226 25.83374023 91.54711914 C25.81957565 92.82079849 25.80541107 94.09447784 25.79081726 95.40675354 C25.75611976 98.76843944 25.73764191 102.12935788 25.72802734 105.4911499 C25.7105388 110.25099459 25.66355829 115.01063531 25.6179657 119.77027893 C25.59540636 122.30093741 25.57963102 124.83166678 25.57112122 127.3624115 C25.56056953 129.06537132 25.56056953 129.06537132 25.54980469 130.80273438 C25.54458549 132.30875465 25.54458549 132.30875465 25.53926086 133.84519958 C25.40795898 136.11352539 25.40795898 136.11352539 24.40795898 137.11352539 C22.33533822 137.20119651 20.25975604 137.22048412 18.18530273 137.21118164 C16.92524414 137.20795898 15.66518555 137.20473633 14.36694336 137.20141602 C13.0264479 137.19305942 11.68595311 137.18459446 10.34545898 137.17602539 C9.00105957 137.17101199 7.65665839 137.16644881 6.31225586 137.16235352 C3.01077958 137.15052027 -0.29060905 137.1340351 -3.59204102 137.11352539 C-3.61536934 119.39860072 -3.63301986 101.68368002 -3.64385319 83.96874332 C-3.64901629 75.7439682 -3.65605925 67.5192026 -3.66748047 59.29443359 C-3.67742688 52.12832093 -3.68389434 44.96221516 -3.68612951 37.79609579 C-3.68743669 33.9993555 -3.690523 30.20263494 -3.69777107 26.40590096 C-3.70453062 22.83633637 -3.70665811 19.26679976 -3.7051487 15.69722939 C-3.70555737 13.75437693 -3.71095291 11.81152755 -3.71646118 9.86868286 C-3.71508652 8.72298325 -3.71371185 7.57728363 -3.71229553 6.39686584 C-3.71321733 5.39487687 -3.71413912 4.3928879 -3.71508884 3.36053562 C-3.53746434 0.11688563 -3.26812601 0.14313635 0 0 Z " fill="#464748" transform="translate(534.592041015625,80.886474609375)"/>
<path d="M0 0 C3.71093357 2.69664423 6.86085509 5.66679886 10 9 C10.83917969 9.77730469 11.67835938 10.55460938 12.54296875 11.35546875 C15.30145751 14.32446222 16.90479977 17.17899639 18.6875 20.8125 C19.26886719 21.97394531 19.85023438 23.13539063 20.44921875 24.33203125 C25.16618609 35.48878775 24 42.98613257 24 56 C1.23 56.33 -21.54 56.66 -45 57 C-40.36663115 63.84093436 -40.36663115 63.84093436 -34.5 67.9375 C-33.7884375 68.31777344 -33.076875 68.69804687 -32.34375 69.08984375 C-22.93064903 72.74526463 -7.54106652 72.64040693 2 69 C4.41912935 67.77405824 6.68352199 66.41825184 9 65 C9.66 65 10.32 65 11 65 C11 64.34 11 63.68 11 63 C11.99 63 12.98 63 14 63 C15.3213258 71.7419859 16.33165588 80.137418 16 89 C-0.71319312 97.29105463 -19.85378871 99.37631144 -37.875 94.3125 C-51.17797063 89.6738552 -63.00038403 82.18200479 -69.81640625 69.49609375 C-70.20699219 68.67238281 -70.59757813 67.84867187 -71 67 C-71.33902344 66.28972656 -71.67804687 65.57945312 -72.02734375 64.84765625 C-76.72820714 52.52142921 -75.21417628 36.68581333 -70.609375 24.55859375 C-64.9336837 12.00870352 -54.94615205 1.91915645 -42 -3 C-28.20582364 -7.07489761 -12.92302895 -6.59089698 0 0 Z M-42.375 24.5 C-45.29897659 28.99842552 -46 31.5282005 -46 37 C-32.14 37 -18.28 37 -4 37 C-6.33600722 26.92792072 -6.33600722 26.92792072 -13.0625 19.625 C-23.55816461 13.81888766 -34.40679981 16.11242085 -42.375 24.5 Z " fill="#464749" transform="translate(820,124)"/>
<path d="M0 0 C11.03801046 8.02945526 18.20032601 20.05976926 21.25 33.3125 C21.62322318 36.57993711 21.79863252 39.84015289 21.9375 43.125 C21.98455078 43.98287109 22.03160156 44.84074219 22.08007812 45.72460938 C22.38344625 52.0456075 22.38344625 52.0456075 21.25 54.3125 C-1.19 54.3125 -23.63 54.3125 -46.75 54.3125 C-42.53070592 60.64144113 -38.33929742 66.17192893 -30.75 68.3125 C-19.39418275 70.57700315 -5.4901312 71.10870274 4.5625 64.75 C5.48482422 64.09837891 5.48482422 64.09837891 6.42578125 63.43359375 C8.36993517 62.23879252 10.04024187 61.81623904 12.25 61.3125 C12.588329 64.52032685 12.91976146 67.72883098 13.25 70.9375 C13.34539062 71.84113281 13.44078125 72.74476563 13.5390625 73.67578125 C14.00579891 78.24313039 14.37222799 82.71367188 14.25 87.3125 C-5.71898864 95.65696569 -25.34308151 98.02824939 -45.93554688 90.08349609 C-57.78620156 85.04792458 -67.55087358 75.89599013 -72.71875 64.1015625 C-77.27900649 50.71636522 -76.3999108 33.20502642 -70.75 20.3125 C-64.87592472 9.45247223 -55.51251716 -0.47406102 -43.75 -4.6875 C-29.00871986 -9.04498533 -13.25322782 -8.06425218 0 0 Z M-43.30859375 22.1796875 C-46.51457207 26.84788256 -46.88348378 29.24688648 -47.75 35.3125 C-34.22 35.3125 -20.69 35.3125 -6.75 35.3125 C-7.75935573 27.23765417 -8.87883078 23.66612992 -14.8125 18.5 C-23.65990852 11.91150429 -36.3969147 13.89953064 -43.30859375 22.1796875 Z " fill="#464749" transform="translate(713.75,125.6875)"/>
<path d="M0 0 C11.64599253 8.9096221 19.08322766 19.706093 21.64453125 34.21484375 C23.3009543 47.10808265 21.51050104 59.69554518 14.078125 70.58984375 C13.54703125 71.40066406 13.0159375 72.21148437 12.46875 73.046875 C4.50946603 84.11844309 -7.53781789 90.95135759 -20.859375 93.27734375 C-22.21178887 93.40222283 -23.56632304 93.50560041 -24.921875 93.58984375 C-25.65792969 93.64269531 -26.39398437 93.69554687 -27.15234375 93.75 C-40.20217174 94.23963466 -53.51320446 90.66579311 -63.6796875 82.328125 C-74.14911368 72.37435712 -80.7402256 60.32974911 -81.39453125 45.68432617 C-81.5595857 33.41871701 -78.63450545 22.28847654 -70.921875 12.58984375 C-70.29667969 11.76742187 -69.67148437 10.945 -69.02734375 10.09765625 C-52.836551 -9.18710989 -21.30394598 -13.37595082 0 0 Z M-46.921875 24.58984375 C-52.49707717 31.91725231 -53.73349107 38.55900465 -52.921875 47.58984375 C-51.51254061 54.28122133 -47.61910844 60.86597962 -42.08203125 64.9453125 C-35.71094617 68.67637078 -30.16003961 69.27493752 -22.921875 68.58984375 C-16.28584357 66.78419915 -11.74971039 62.14537781 -7.921875 56.58984375 C-4.27748406 48.90439346 -4.09835106 40.52260148 -6.921875 32.58984375 C-8.60127269 29.40405008 -8.60127269 29.40405008 -10.921875 26.58984375 C-11.33179688 26.06261719 -11.74171875 25.53539062 -12.1640625 24.9921875 C-16.93684532 19.5048355 -22.95389121 18.07571932 -29.984375 17.21484375 C-36.43557813 18.0384016 -42.24930847 19.91727722 -46.921875 24.58984375 Z " fill="#464749" transform="translate(1030.921875,126.41015625)"/>
<path d="M0 0 C9.57 0 19.14 0 29 0 C29 44.88 29 89.76 29 136 C19.76 136 10.52 136 1 136 C0 135 0 135 -0.12304783 132.76860714 C-0.12212604 131.77399251 -0.12120424 130.77937788 -0.12025452 129.75462341 C-0.12162918 128.61733795 -0.12300385 127.48005249 -0.12442017 126.30830383 C-0.12082489 125.04954941 -0.11722961 123.79079498 -0.11352539 122.49389648 C-0.11367142 121.17701843 -0.11381744 119.86014038 -0.1139679 118.50335693 C-0.11425587 114.88161732 -0.10835924 111.25991054 -0.10139394 107.63817859 C-0.0951603 103.85718116 -0.09455659 100.07618305 -0.09336853 96.29518127 C-0.09025524 89.1305571 -0.08204189 81.9659481 -0.07201904 74.80133063 C-0.06085782 66.64668838 -0.05534743 58.49204543 -0.05032361 50.33739746 C-0.03985928 33.55825467 -0.02151383 16.77913281 0 0 Z " fill="#4A4B4D" transform="translate(858,82)"/>
<path d="M0 0 C9.24 0 18.48 0 28 0 C28 32.01 28 64.02 28 97 C19.09 97 10.18 97 1 97 C-0.89977088 95.10022912 -0.12012643 92.31060935 -0.12442017 89.78329468 C-0.11902725 88.44218124 -0.11902725 88.44218124 -0.11352539 87.07397461 C-0.11367142 86.13748581 -0.11381744 85.20099701 -0.1139679 84.23612976 C-0.11326837 81.12484461 -0.10547415 78.01361851 -0.09765625 74.90234375 C-0.09579221 72.75142957 -0.09436824 70.60051497 -0.09336853 68.44960022 C-0.08954225 62.77618242 -0.07971102 57.10279005 -0.06866455 51.42938232 C-0.0584528 45.64498234 -0.05387142 39.86057827 -0.04882812 34.07617188 C-0.03808885 22.71743493 -0.02049116 11.35872355 0 0 Z " fill="#474A4C" transform="translate(906,121)"/>
<path d="M0 0 C4.2308213 2.85120566 7.83698399 6.00222141 9.578125 10.92578125 C10.47552741 15.94928385 9.40797121 19.4625842 6.875 23.9375 C2.83021483 28.72737717 -0.34041434 30.68435585 -6.5625 31.25 C-12.01515798 30.77169667 -15.41774386 28.9998718 -18.9375 24.875 C-22.66796763 19.86551489 -22.61571216 16.06196519 -22.125 9.9375 C-20.57537587 4.80437006 -17.83869831 2.42831922 -13.30859375 -0.1484375 C-8.65545801 -2.09626176 -4.77228507 -1.62257692 0 0 Z " fill="#48494B" transform="translate(927.125,80.0625)"/>
<path d="M0 0 C1.27018478 -0.00281982 2.54036957 -0.00563965 3.8490448 -0.00854492 C5.24917617 -0.00660079 6.6493074 -0.00455263 8.04943848 -0.00241089 C9.52972964 -0.0037665 11.01002048 -0.00554733 12.49031067 -0.00772095 C16.50469351 -0.01227625 20.51905063 -0.01051353 24.53343391 -0.00734186 C28.73648268 -0.00480845 32.93952927 -0.00715854 37.14257812 -0.00872803 C44.20056554 -0.01054685 51.25854249 -0.00815093 58.31652832 -0.00338745 C66.47412438 0.00205462 74.63169545 0.00029176 82.7892909 -0.00521386 C89.79578347 -0.00975315 96.80226851 -0.01039153 103.80876207 -0.00777519 C107.99231914 -0.00621692 112.17586446 -0.00600635 116.35942078 -0.00931168 C120.29267229 -0.01220223 124.2258916 -0.01019288 128.15913963 -0.00441742 C129.60189447 -0.00309618 131.04465202 -0.00347314 132.48740578 -0.00568008 C134.4581556 -0.00841654 136.42891134 -0.00437508 138.3996582 0 C139.50208107 0.00037703 140.60450394 0.00075405 141.74033356 0.0011425 C144.50553427 0.118722 147.00948562 0.49846063 149.6998291 1.12698364 C149.6998291 1.45698364 149.6998291 1.78698364 149.6998291 2.12698364 C97.2298291 2.45698364 44.7598291 2.78698364 -9.3001709 3.12698364 C-9.6301709 3.78698364 -9.9601709 4.44698364 -10.3001709 5.12698364 C-10.9601709 5.12698364 -11.6201709 5.12698364 -12.3001709 5.12698364 C-12.3001709 7.10698364 -12.3001709 9.08698364 -12.3001709 11.12698364 C-11.6401709 11.12698364 -10.9801709 11.12698364 -10.3001709 11.12698364 C-10.3001709 13.10698364 -10.3001709 15.08698364 -10.3001709 17.12698364 C-9.6401709 17.12698364 -8.9801709 17.12698364 -8.3001709 17.12698364 C-8.3001709 18.44698364 -8.3001709 19.76698364 -8.3001709 21.12698364 C-7.6401709 21.12698364 -6.9801709 21.12698364 -6.3001709 21.12698364 C-6.3001709 21.78698364 -6.3001709 22.44698364 -6.3001709 23.12698364 C-5.6401709 23.12698364 -4.9801709 23.12698364 -4.3001709 23.12698364 C-4.3001709 23.78698364 -4.3001709 24.44698364 -4.3001709 25.12698364 C-2.9801709 25.45698364 -1.6601709 25.78698364 -0.3001709 26.12698364 C-3.0657959 26.41995239 -3.0657959 26.41995239 -6.3001709 26.12698364 C-8.3470459 24.11526489 -8.3470459 24.11526489 -10.0501709 21.43948364 C-10.90868652 20.13430786 -10.90868652 20.13430786 -11.7845459 18.80276489 C-14.61705295 13.8020759 -15.94696356 9.94811756 -15.3001709 4.12698364 C-11.32618329 -0.28855814 -5.57150993 0.00190544 0 0 Z " fill="#739FEF" transform="translate(60.3001708984375,39.873016357421875)"/>
<path d="M0 0 C1.60229965 0.00839149 1.60229965 0.00839149 3.23696899 0.01695251 C5.00267242 0.03401497 5.00267242 0.03401497 6.80404663 0.05142212 C8.03994537 0.05942337 9.27584412 0.06742462 10.54919434 0.07566833 C13.94625104 0.09882578 17.34320937 0.12657289 20.74020815 0.15662336 C24.29722067 0.18727185 27.85426988 0.21290891 31.41131592 0.23931885 C37.39186889 0.28454985 43.37237599 0.33401752 49.35287476 0.38589478 C56.25437284 0.44570236 63.15589769 0.49854328 70.0574795 0.54766309 C76.70286031 0.59515049 83.34818927 0.64795037 89.9935112 0.703022 C92.81705072 0.72631004 95.64059504 0.74770128 98.46416092 0.76752853 C102.41865493 0.79555549 106.37305887 0.83132426 110.32748413 0.86782837 C112.07496948 0.87881813 112.07496948 0.87881813 113.85775757 0.89002991 C119.6441346 0.9499349 125.23058875 1.22240774 130.95394897 2.08901978 C127.20130397 4.53266509 123.47215183 4.36492834 119.15170288 4.3319397 C118.36590096 4.33381538 117.58009903 4.33569107 116.77048492 4.3376236 C114.1570622 4.34128409 111.54391035 4.33052328 108.93051147 4.31948853 C107.08626322 4.31863201 105.24201446 4.3185501 103.39776611 4.31919861 C98.47303168 4.31804804 93.54841862 4.3037375 88.62371826 4.28625488 C85.58918047 4.27655249 82.55466086 4.27070087 79.52011108 4.26626587 C50.65659979 4.22385402 21.80445501 4.02611292 -7.04605103 3.08901978 C-7.04605103 2.42901978 -7.04605103 1.76901978 -7.04605103 1.08901978 C-4.52265107 -0.1726802 -2.82453697 -0.02121345 0 0 Z " fill="#457FF1" transform="translate(73.04605102539063,70.91098022460938)"/>
<path d="M0 0 C1.12591553 0.00523682 2.25183105 0.01047363 3.41186523 0.01586914 C4.62680664 0.0190918 5.84174805 0.02231445 7.09350586 0.02563477 C8.37290039 0.03401367 9.65229492 0.04239258 10.97045898 0.05102539 C12.2537207 0.05553711 13.53698242 0.06004883 14.85913086 0.06469727 C18.04211921 0.07652994 21.22501661 0.09301471 24.40795898 0.11352539 C24.07795898 1.10352539 23.74795898 2.09352539 23.40795898 3.11352539 C15.48795898 2.78352539 7.56795898 2.45352539 -0.59204102 2.11352539 C-0.59204102 33.13352539 -0.59204102 64.15352539 -0.59204102 96.11352539 C-0.92204102 96.11352539 -1.25204102 96.11352539 -1.59204102 96.11352539 C-1.92204102 107.99352539 -2.25204102 119.87352539 -2.59204102 132.11352539 C-2.92204102 132.11352539 -3.25204102 132.11352539 -3.59204102 132.11352539 C-3.61536964 115.05051952 -3.63302001 97.98751861 -3.64385319 80.92450047 C-3.64901622 73.00239594 -3.65605906 65.0803013 -3.66748047 57.15820312 C-3.67742708 50.25577902 -3.68389439 43.35336208 -3.68612951 36.45093101 C-3.68743666 32.79391878 -3.69052275 29.13692703 -3.69777107 25.47992134 C-3.70578449 21.40408533 -3.70603217 17.32828526 -3.70556641 13.25244141 C-3.70916168 12.03108994 -3.71275696 10.80973846 -3.71646118 9.55137634 C-3.71508652 8.4477475 -3.71371185 7.34411865 -3.71229553 6.20704651 C-3.71321733 5.24192925 -3.71413912 4.276812 -3.71508884 3.28244877 C-3.53424464 0.09476777 -3.21409438 0.14076989 0 0 Z " fill="#3D4041" transform="translate(534.592041015625,80.886474609375)"/>
<path d="M0 0 C0.33 0 0.66 0 1 0 C1.495 6.93 1.495 6.93 2 14 C-20.44 14 -42.88 14 -66 14 C-66 13.01 -66 12.02 -66 11 C-44.22 11 -22.44 11 0 11 C0 7.37 0 3.74 0 0 Z " fill="#38393B" transform="translate(732,166)"/>
<path d="M0 0 C22.11 0 44.22 0 67 0 C67.495 1.485 67.495 1.485 68 3 C45.89 3 23.78 3 1 3 C0.67 2.01 0.34 1.02 0 0 Z " fill="#37383A" transform="translate(773,177)"/>
<path d="M0 0 C7.54393796 -0.02543017 15.08786479 -0.04290056 22.63183594 -0.05493164 C25.19629326 -0.0599492 27.76074775 -0.06676472 30.32519531 -0.07543945 C34.01888737 -0.08761803 37.71254147 -0.0932542 41.40625 -0.09765625 C42.5461438 -0.10281754 43.6860376 -0.10797882 44.86047363 -0.11329651 C50.67334659 -0.11370284 56.25244911 0.11646691 62 1 C58.82813997 2.86231042 56.52344627 3.24516558 52.86425781 3.22705078 C51.84350159 3.22689972 50.82274536 3.22674866 49.77105713 3.22659302 C48.67613953 3.21627045 47.58122192 3.20594788 46.453125 3.1953125 C44.76361725 3.19106766 44.76361725 3.19106766 43.03997803 3.18673706 C39.44321054 3.17554374 35.84669221 3.15044037 32.25 3.125 C29.81120151 3.11496912 27.37239912 3.10584346 24.93359375 3.09765625 C18.95564418 3.07560716 12.97783989 3.04213784 7 3 C7 2.67 7 2.34 7 2 C4.69 1.67 2.38 1.34 0 1 C0 0.67 0 0.34 0 0 Z " fill="#76A1F5" transform="translate(142,72)"/>
<path d="M0 0 C1.98 0 3.96 0 6 0 C6 0.66 6 1.32 6 2 C6.66 2 7.32 2 8 2 C8 2.66 8 3.32 8 4 C6.68 4 5.36 4 4 4 C4 5.32 4 6.64 4 8 C4.66 8 5.32 8 6 8 C6.66 8.66 7.32 9.32 8 10 C8.66 10 9.32 10 10 10 C10 10.66 10 11.32 10 12 C10.66 12 11.32 12 12 12 C12 12.66 12 13.32 12 14 C13.32 14 14.64 14 16 14 C16 14.66 16 15.32 16 16 C15.34 16 14.68 16 14 16 C14.66 16.99 15.32 17.98 16 19 C16 19.99 16 20.98 16 22 C9.78090176 20.3038823 5.70510731 15.75826183 2.40625 10.421875 C-0.11969112 5.62258687 -0.11969112 5.62258687 -1 3 C-0.67 2.01 -0.34 1.02 0 0 Z " fill="#2C6BEB" transform="translate(62,111)"/>
<path d="M0 0 C0.33 0 0.66 0 1 0 C1 12.54 1 25.08 1 38 C1.66 38 2.32 38 3 38 C3 45.26 3 52.52 3 60 C2.67 59.34 2.34 58.68 2 58 C1.34 58 0.68 58 0 58 C0 38.86 0 19.72 0 0 Z " fill="#3D3E40" transform="translate(620,156)"/>
<path d="M0 0 C0.33 0 0.66 0 1 0 C1.06058594 1.03640625 1.12117187 2.0728125 1.18359375 3.140625 C1.26803371 4.51042873 1.35267997 5.88021975 1.4375 7.25 C1.47681641 7.93191406 1.51613281 8.61382812 1.55664062 9.31640625 C1.7545811 13.0808415 1.7545811 13.0808415 2.52734375 16.75390625 C3.21892192 20.04033143 3.00747575 23.27475766 2.87890625 26.609375 C2.85529526 27.33618469 2.83168427 28.06299438 2.80735779 28.81182861 C2.73101128 31.12476558 2.64686319 33.43734293 2.5625 35.75 C2.50925021 37.3215972 2.45651002 38.89321176 2.40429688 40.46484375 C2.27543568 44.31012196 2.13957873 48.15509651 2 52 C1.34 51.67 0.68 51.34 0 51 C0 34.17 0 17.34 0 0 Z " fill="#3D3F41" transform="translate(557,162)"/>
<path d="M0 0 C0.33 0 0.66 0 1 0 C1 24.09 1 48.18 1 73 C2.32 73.33 3.64 73.66 5 74 C3.34385343 74.38218767 1.67542976 74.71395102 0 75 C-1 74 -1 74 -1.08229065 71.07041931 C-1.06230515 69.75803787 -1.04231964 68.44565643 -1.02172852 67.09350586 C-1.01212097 66.37159561 -1.00251343 65.64968536 -0.99261475 64.90589905 C-0.95951263 62.50878484 -0.91922345 60.11184659 -0.87890625 57.71484375 C-0.85461607 56.05718108 -0.83077197 54.39951182 -0.80735779 52.74183655 C-0.74440713 48.37039707 -0.67537183 43.99907372 -0.60510254 39.62774658 C-0.534518 35.17050483 -0.469642 30.71318047 -0.40429688 26.25585938 C-0.27514308 17.50381482 -0.13956624 8.75188467 0 0 Z " fill="#45484A" transform="translate(907,143)"/>
<path d="M0 0 C1.32 0 2.64 0 4 0 C4 0.66 4 1.32 4 2 C5.98 2 7.96 2 10 2 C10 3.32 10 4.64 10 6 C9.01 6 8.02 6 7 6 C7.33 7.32 7.66 8.64 8 10 C8.66 10 9.32 10 10 10 C9.67 10.99 9.34 11.98 9 13 C6.33333333 11 3.66666667 9 1 7 C0.25234375 6.48050781 -0.4953125 5.96101563 -1.265625 5.42578125 C-1.83796875 4.95527344 -2.4103125 4.48476562 -3 4 C-3 3.34 -3 2.68 -3 2 C-2.01 2 -1.02 2 0 2 C0 1.34 0 0.68 0 0 Z " fill="#2466F2" transform="translate(226,79)"/>
<path d="M0 0 C8.58 0 17.16 0 26 0 C26.33 0.99 26.66 1.98 27 3 C18.09 3 9.18 3 0 3 C0 2.01 0 1.02 0 0 Z " fill="#313132" transform="translate(453,215)"/>
<path d="M0 0 C7.92 0 15.84 0 24 0 C24.33 0.99 24.66 1.98 25 3 C16.42 3 7.84 3 -1 3 C-0.67 2.01 -0.34 1.02 0 0 Z " fill="#313233" transform="translate(370,215)"/>
<path d="M0 0 C8.25 0 16.5 0 25 0 C25 0.99 25 1.98 25 3 C17.08 3 9.16 3 1 3 C0.67 2.01 0.34 1.02 0 0 Z " fill="#313132" transform="translate(860,215)"/>
<path d="M0 0 C0.99 0 1.98 0 3 0 C3 0.66 3 1.32 3 2 C3.66 2 4.32 2 5 2 C5 2.66 5 3.32 5 4 C5.66 4 6.32 4 7 4 C7 4.66 7 5.32 7 6 C7.66 6 8.32 6 9 6 C9 6.66 9 7.32 9 8 C9.66 8 10.32 8 11 8 C11 9.98 11 11.96 11 14 C11.66 14 12.32 14 13 14 C15.4294516 17.6441774 15.16179575 19.71241272 15 24 C12.09911278 21.4927435 10.79207201 18.76476099 9.1875 15.3125 C6.89874108 10.58583998 4.39642706 6.50634429 1.1015625 2.42578125 C0 1 0 1 0 0 Z " fill="#2D6CE5" transform="translate(237,93)"/>
<path d="M0 0 C0.66 0 1.32 0 2 0 C0.75499151 6.64004527 -2.35009623 10.22822376 -7 15 C-7.928125 15.96873047 -7.928125 15.96873047 -8.875 16.95703125 C-15.24914384 23.48228625 -15.24914384 23.48228625 -18 25 C-20.25 24.6875 -20.25 24.6875 -22 24 C-21.34 24 -20.68 24 -20 24 C-20 23.34 -20 22.68 -20 22 C-15.64705882 18 -15.64705882 18 -12 18 C-12 17.34 -12 16.68 -12 16 C-11.34 16 -10.68 16 -10 16 C-10 15.34 -10 14.68 -10 14 C-9.34 14 -8.68 14 -8 14 C-8 13.34 -8 12.68 -8 12 C-7.34 12 -6.68 12 -6 12 C-6 11.34 -6 10.68 -6 10 C-5.34 10 -4.68 10 -4 10 C-4 8.68 -4 7.36 -4 6 C-3.34 6 -2.68 6 -2 6 C-1.34 4.02 -0.68 2.04 0 0 Z " fill="#2963E0" transform="translate(266,191)"/>
<path d="M0 0 C0.33 0 0.66 0 1 0 C1 17.49 1 34.98 1 53 C-0.485 53.495 -0.485 53.495 -2 54 C-2 51.36 -2 48.72 -2 46 C-1.67 46 -1.34 46 -1 46 C-0.67 30.82 -0.34 15.64 0 0 Z " fill="#3E4142" transform="translate(597,159)"/>
<path d="M0 0 C2 2 2 2 2.08203125 5.67578125 C2.00644832 7.22211716 1.91568219 8.76776022 1.8125 10.3125 C1.76424072 11.1154248 1.71598145 11.91834961 1.66625977 12.74560547 C1.1717945 19.71527716 -0.10819758 26.26565931 -2 33 C-2.33 33 -2.66 33 -3 33 C-3.22786458 31.01432292 -3.45572917 29.02864583 -3.68359375 27.04296875 C-3.97170735 24.80603607 -3.97170735 24.80603607 -5 22 C-4.01 21.67 -3.02 21.34 -2 21 C-1.01780597 18.34394625 -0.83277066 15.70367523 -0.68359375 12.890625 C-0.64169922 12.13652344 -0.59980469 11.38242188 -0.55664062 10.60546875 C-0.51732422 9.82816406 -0.47800781 9.05085937 -0.4375 8.25 C-0.39431641 7.45722656 -0.35113281 6.66445312 -0.30664062 5.84765625 C-0.20097009 3.89862185 -0.10002034 1.94933252 0 0 Z " fill="#3F7AEC" transform="translate(285,132)"/>
<path d="M0 0 C3.12482562 -0.08687496 6.24934246 -0.14034568 9.375 -0.1875 C10.70917969 -0.22520508 10.70917969 -0.22520508 12.0703125 -0.26367188 C13.34648438 -0.27817383 13.34648438 -0.27817383 14.6484375 -0.29296875 C15.82672119 -0.31653442 15.82672119 -0.31653442 17.02880859 -0.34057617 C17.67930176 -0.22818604 18.32979492 -0.1157959 19 0 C19.66 0.99 20.32 1.98 21 3 C13.74 3 6.48 3 -1 3 C-0.67 2.01 -0.34 1.02 0 0 Z " fill="#303132" transform="translate(537,215)"/>
<path d="M0 0 C8.58 0 17.16 0 26 0 C22.06227612 3.93772388 14.39976702 2.88203091 9 3 C5.63427681 2.8282377 2.33078079 2.50941353 -1 2 C-0.67 1.34 -0.34 0.68 0 0 Z " fill="#4A81E7" transform="translate(181,231)"/>
<path d="M0 0 C0.33 0 0.66 0 1 0 C1.05845196 3.37492629 1.09374742 6.74972087 1.125 10.125 C1.15013672 11.55199219 1.15013672 11.55199219 1.17578125 13.0078125 C1.21104528 18.08583255 1.03333617 22.24487525 -1 27 C-1.66 27 -2.32 27 -3 27 C-2.855625 25.865625 -2.71125 24.73125 -2.5625 23.5625 C-1.92282021 17.94953508 -1.6532024 12.31915273 -1.39282227 6.67797852 C-1.1074588 1.1074588 -1.1074588 1.1074588 0 0 Z " fill="#3D76E4" transform="translate(255,132)"/>
<path d="M0 0 C8.91 0 17.82 0 27 0 C26.67 0.99 26.34 1.98 26 3 C17.75 3 9.5 3 1 3 C0.67 2.01 0.34 1.02 0 0 Z " fill="#363739" transform="translate(532,81)"/>
<path d="M0 0 C0.99 0.33 1.98 0.66 3 1 C2.34 1 1.68 1 1 1 C1 1.66 1 2.32 1 3 C1.99 3.33 2.98 3.66 4 4 C-0.88077452 6.44038726 -3.52667068 7.46845421 -9 6 C-9 5.34 -9 4.68 -9 4 C-9.66 4 -10.32 4 -11 4 C-11 3.34 -11 2.68 -11 2 C-8.36 2 -5.72 2 -3 2 C-3 2.66 -3 3.32 -3 4 C-2.34 3.67 -1.68 3.34 -1 3 C-0.67 2.01 -0.34 1.02 0 0 Z " fill="#3574ED" transform="translate(233,219)"/>
<path d="M0 0 C3.12482562 -0.08687496 6.24934246 -0.14034568 9.375 -0.1875 C10.70917969 -0.22520508 10.70917969 -0.22520508 12.0703125 -0.26367188 C13.34648438 -0.27817383 13.34648438 -0.27817383 14.6484375 -0.29296875 C15.82672119 -0.31653442 15.82672119 -0.31653442 17.02880859 -0.34057617 C17.67930176 -0.22818604 18.32979492 -0.1157959 19 0 C19.66 0.99 20.32 1.98 21 3 C14.07 3 7.14 3 0 3 C0 2.01 0 1.02 0 0 Z " fill="#2F2F30" transform="translate(597,215)"/>
<path d="M0 0 C2.58396679 -0.08112454 5.16537568 -0.14054748 7.75 -0.1875 C8.47960937 -0.21263672 9.20921875 -0.23777344 9.9609375 -0.26367188 C14.78731876 -0.32948616 15.94866839 -0.03849871 20 3 C13.73 3 7.46 3 1 3 C0.67 2.01 0.34 1.02 0 0 Z " fill="#303031" transform="translate(908,215)"/>
<path d="M0 0 C7.42857143 -0.14285714 7.42857143 -0.14285714 11 1 C11 1.66 11 2.32 11 3 C13.97 3 16.94 3 20 3 C20 3.33 20 3.66 20 4 C18.083412 4.02712153 16.1667127 4.04645097 14.25 4.0625 C12.64898437 4.07990234 12.64898437 4.07990234 11.015625 4.09765625 C8.46631499 4.01510087 6.42066409 3.74617558 4 3 C4 3.99 4 4.98 4 6 C2.68 6 1.36 6 0 6 C0 5.34 0 4.68 0 4 C0.66 4 1.32 4 2 4 C2 3.34 2 2.68 2 2 C1.34 2 0.68 2 0 2 C0 1.34 0 0.68 0 0 Z " fill="#2161E4" transform="translate(170,199)"/>
<path d="M0 0 C0.33 0 0.66 0 1 0 C1.33 12.87 1.66 25.74 2 39 C1.01 39 0.02 39 -1 39 C-0.67 26.13 -0.34 13.26 0 0 Z " fill="#3A3D3E" transform="translate(533,178)"/>
<path d="M0 0 C0.99 0.33 1.98 0.66 3 1 C1.68 6.61 0.36 12.22 -1 18 C-1.66 17.34 -2.32 16.68 -3 16 C-3 14.68 -3 13.36 -3 12 C-2.34 12 -1.68 12 -1 12 C-1.20625 11.319375 -1.4125 10.63875 -1.625 9.9375 C-2.10063829 6.21166669 -1.17669149 3.53007446 0 0 Z " fill="#585B5D" transform="translate(509,113)"/>
<path d="M0 0 C3.3 0 6.6 0 10 0 C9.67 1.32 9.34 2.64 9 4 C9.66 4 10.32 4 11 4 C11 4.66 11 5.32 11 6 C11.99 6.33 12.98 6.66 14 7 C7.84971823 6.62345214 4.77780324 4.90024754 0 1 C0 0.67 0 0.34 0 0 Z " fill="#316DE4" transform="translate(137,215)"/>
<path d="M0 0 C13.86 0.495 13.86 0.495 28 1 C28 1.33 28 1.66 28 2 C15.625 2.495 15.625 2.495 3 3 C2.67 4.98 2.34 6.96 2 9 C-0.05164237 5.53785351 0 4.40610765 0 0 Z " fill="#595B5F" transform="translate(330,85)"/>
<path d="M0 0 C0.99 0.33 1.98 0.66 3 1 C2.64989059 9.19256018 2.64989059 9.19256018 -0.0625 12.5625 C-0.701875 13.036875 -1.34125 13.51125 -2 14 C-2 10.6325319 -1.68568426 8.00700022 -1 4.75 C-0.814375 3.85796875 -0.62875 2.9659375 -0.4375 2.046875 C-0.2209375 1.03367187 -0.2209375 1.03367187 0 0 Z " fill="#3E3F42" transform="translate(934,91)"/>
<path d="M0 0 C9.24 0 18.48 0 28 0 C28 0.66 28 1.32 28 2 C27.26362305 1.98952637 26.52724609 1.97905273 25.76855469 1.96826172 C22.42907124 1.92666298 19.08964235 1.90066136 15.75 1.875 C14.59113281 1.85824219 13.43226563 1.84148437 12.23828125 1.82421875 C11.12324219 1.81777344 10.00820313 1.81132813 8.859375 1.8046875 C7.83295898 1.79421387 6.80654297 1.78374023 5.74902344 1.77294922 C2.98015712 2.00163889 1.35581208 2.5756701 -1 4 C-0.67 2.68 -0.34 1.36 0 0 Z " fill="#3D3E40" transform="translate(491,85)"/>
<path d="M0 0 C2.475 0.495 2.475 0.495 5 1 C5 4.3 5 7.6 5 11 C5.66 11 6.32 11 7 11 C7 12.65 7 14.3 7 16 C4.46764131 12.94520628 3.11498033 10.05026923 1.8125 6.3125 C1.46832031 5.33925781 1.12414062 4.36601562 0.76953125 3.36328125 C0 1 0 1 0 0 Z " fill="#497DEB" transform="translate(101,166)"/>
<path d="M0 0 C1.32 0.33 2.64 0.66 4 1 C3.67 3.97 3.34 6.94 3 10 C1.35 9.67 -0.3 9.34 -2 9 C-2 7.68 -2 6.36 -2 5 C-2.66 5 -3.32 5 -4 5 C-4 4.34 -4 3.68 -4 3 C-2.68 3 -1.36 3 0 3 C0 3.66 0 4.32 0 5 C0.66 5 1.32 5 2 5 C2 3.68 2 2.36 2 1 C1.34 0.67 0.68 0.34 0 0 Z " fill="#2263E3" transform="translate(130,106)"/>
<path d="M0 0 C4.455 0.99 4.455 0.99 9 2 C9 1.34 9 0.68 9 0 C10.32 0 11.64 0 13 0 C13 0.66 13 1.32 13 2 C13.66 2 14.32 2 15 2 C14.67 2.99 14.34 3.98 14 5 C12.68 5 11.36 5 10 5 C10 4.34 10 3.68 10 3 C8.906875 3.061875 7.81375 3.12375 6.6875 3.1875 C3 3 3 3 0 0 Z " fill="#2868E8" transform="translate(209,75)"/>
<path d="M0 0 C1.32 0 2.64 0 4 0 C4 0.66 4 1.32 4 2 C3.01 2 2.02 2 1 2 C1.33 3.32 1.66 4.64 2 6 C2.66 6 3.32 6 4 6 C3.67 6.99 3.34 7.98 3 9 C1.70684939 8.04367001 0.41553147 7.08486149 -0.875 6.125 C-1.59429687 5.59132813 -2.31359375 5.05765625 -3.0546875 4.5078125 C-5 3 -5 3 -7 1 C-4.69 1.33 -2.38 1.66 0 2 C0 1.34 0 0.68 0 0 Z " fill="#3D76E9" transform="translate(232,83)"/>
<path d="M0 0 C0.33 0 0.66 0 1 0 C1 6.93 1 13.86 1 21 C2.32 21.33 3.64 21.66 5 22 C3.34385343 22.38218767 1.67542976 22.71395102 0 23 C-1 22 -1 22 -1.02172852 19.86694336 C-0.97459717 18.95050049 -0.92746582 18.03405762 -0.87890625 17.08984375 C-0.83056641 16.10048828 -0.78222656 15.11113281 -0.73242188 14.09179688 C-0.67634766 13.05087891 -0.62027344 12.00996094 -0.5625 10.9375 C-0.51029297 9.89271484 -0.45808594 8.84792969 -0.40429688 7.77148438 C-0.27416704 5.18071764 -0.13918842 2.59029334 0 0 Z " fill="#575B5D" transform="translate(907,195)"/>
<path d="M0 0 C0.2475 0.639375 0.495 1.27875 0.75 1.9375 C1.81562433 4.18741541 1.81562433 4.18741541 4.125 4.75 C4.74375 4.8325 5.3625 4.915 6 5 C6.33 6.65 6.66 8.3 7 10 C6.01 10.33 5.02 10.66 4 11 C3.13341385 9.73760288 2.28207941 8.46472499 1.4375 7.1875 C0.72400391 6.12595703 0.72400391 6.12595703 -0.00390625 5.04296875 C-1 3 -1 3 0 0 Z " fill="#545456" transform="translate(643,189)"/>
<path d="M0 0 C0.66 0 1.32 0 2 0 C2 5.28 2 10.56 2 16 C1.01 15.67 0.02 15.34 -1 15 C-0.67 10.05 -0.34 5.1 0 0 Z " fill="#36373A" transform="translate(842,163)"/>
<path d="M0 0 C3.14367053 4.7155058 4.30881872 7.00592277 3.625 12.75 C3.51414062 13.73484375 3.40328125 14.7196875 3.2890625 15.734375 C3.19367188 16.48203125 3.09828125 17.2296875 3 18 C2.67 18 2.34 18 2 18 C1.47230843 15.18862626 0.952556 12.37619018 0.4375 9.5625 C0.21030273 8.35883789 0.21030273 8.35883789 -0.02148438 7.13085938 C-0.39092908 5.0946176 -0.70029016 3.04766793 -1 1 C-0.67 0.67 -0.34 0.34 0 0 Z " fill="#3671EC" transform="translate(98,146)"/>
<path d="M0 0 C3.66172475 0.62678171 6.8818995 1.64451846 10.3125 3.0625 C11.19550781 3.42472656 12.07851562 3.78695312 12.98828125 4.16015625 C13.65214844 4.43730469 14.31601563 4.71445313 15 5 C15 5.33 15 5.66 15 6 C12.36 6 9.72 6 7 6 C7 5.34 7 4.68 7 4 C5.35 4 3.7 4 2 4 C2 3.01 2 2.02 2 1 C1.34 0.67 0.68 0.34 0 0 Z " fill="#447CEA" transform="translate(159,193)"/>
<path d="M0 0 C2.96175123 0.61277612 4.38058783 1.25372522 7 3 C5.02579865 5.52259061 4.03254358 5.9929808 0.8125 6.6875 C-0.5796875 6.8421875 -0.5796875 6.8421875 -2 7 C-2 6.34 -2 5.68 -2 5 C-1.01 4.34 -0.02 3.68 1 3 C0.67 2.01 0.34 1.02 0 0 Z " fill="#2465E3" transform="translate(236,215)"/>
<path d="M0 0 C0.66 0.33 1.32 0.66 2 1 C2.28571429 8.42857143 2.28571429 8.42857143 0 12 C-0.99 12 -1.98 12 -3 12 C-2.01 8.04 -1.02 4.08 0 0 Z " fill="#575859" transform="translate(479,129)"/>
<path d="M0 0 C0.66 0.33 1.32 0.66 2 1 C3.87056791 1.2275015 5.74685958 1.40962811 7.625 1.5625 C8.62789062 1.64628906 9.63078125 1.73007813 10.6640625 1.81640625 C11.43492188 1.87699219 12.20578125 1.93757813 13 2 C11.68 2.33 10.36 2.66 9 3 C9 3.99 9 4.98 9 6 C7.68 6 6.36 6 5 6 C5 5.01 5 4.02 5 3 C2.69 3 0.38 3 -2 3 C-1.34 2.01 -0.68 1.02 0 0 Z " fill="#2F6FF3" transform="translate(63,103)"/>
<path d="M0 0 C1.98 0 3.96 0 6 0 C6 0.66 6 1.32 6 2 C6.66 2 7.32 2 8 2 C8 2.66 8 3.32 8 4 C7.05125 3.95875 6.1025 3.9175 5.125 3.875 C1.89755144 3.65026182 1.89755144 3.65026182 0 6 C-1.125 2.25 -1.125 2.25 0 0 Z " fill="#2B70F2" transform="translate(62,111)"/>
<path d="M0 0 C0.99 0 1.98 0 3 0 C3 0.66 3 1.32 3 2 C3.66 2 4.32 2 5 2 C5 2.66 5 3.32 5 4 C5.66 4 6.32 4 7 4 C7 4.66 7 5.32 7 6 C7.66 6 8.32 6 9 6 C8.67 6.99 8.34 7.98 8 9 C4.67336597 7.89112199 4.21086541 7.28198895 2.3125 4.5 C1.87550781 3.8709375 1.43851563 3.241875 0.98828125 2.59375 C0 1 0 1 0 0 Z " fill="#4279E9" transform="translate(237,93)"/>
<path d="M0 0 C6 7.2 6 7.2 6 12 C5.34 12 4.68 12 4 12 C2 9 2 9 2 6 C1.34 6 0.68 6 0 6 C0 4.02 0 2.04 0 0 Z " fill="#2968E2" transform="translate(270,83)"/>
<path d="M0 0 C0 0.99 0 1.98 0 3 C-5.28 2.67 -10.56 2.34 -16 2 C-16 1.67 -16 1.34 -16 1 C-10.65097076 0.40801257 -5.39115154 -0.14187241 0 0 Z " fill="#535455" transform="translate(622,215)"/>
<path d="M0 0 C0.66 0 1.32 0 2 0 C1.88490339 1.41750563 1.75746342 2.83401169 1.625 4.25 C1.55539062 5.03890625 1.48578125 5.8278125 1.4140625 6.640625 C0.98492887 9.085877 0.21399362 10.84836903 -1 13 C-1.33 11.02 -1.66 9.04 -2 7 C-1.34 7 -0.68 7 0 7 C-0.185625 6.030625 -0.37125 5.06125 -0.5625 4.0625 C-0.706875 3.051875 -0.85125 2.04125 -1 1 C-0.67 0.67 -0.34 0.34 0 0 Z " fill="#5B5D5E" transform="translate(484,202)"/>
<path d="M0 0 C4.23429756 1.31061591 8.07407404 2.94356259 12 5 C10.265625 6.140625 10.265625 6.140625 8 7 C5.859375 6.171875 5.859375 6.171875 3.75 4.75 C3.04359375 4.29109375 2.3371875 3.8321875 1.609375 3.359375 C1.07828125 2.91078125 0.5471875 2.4621875 0 2 C0 1.34 0 0.68 0 0 Z " fill="#3F4144" transform="translate(670,189)"/>
<path d="M0 0 C1.32 0 2.64 0 4 0 C4.75 2.25 4.75 2.25 5 5 C3.0625 7.3125 3.0625 7.3125 1 9 C1.33 7.35 1.66 5.7 2 4 C1.34 4 0.68 4 0 4 C0 2.68 0 1.36 0 0 Z " fill="#3976ED" transform="translate(266,187)"/>
<path d="M0 0 C0.66 0.33 1.32 0.66 2 1 C1.01 4.96 0.02 8.92 -1 13 C-1.33 13 -1.66 13 -2 13 C-3.125 5.375 -3.125 5.375 -2 2 C-1.34 2 -0.68 2 0 2 C0 1.34 0 0.68 0 0 Z " fill="#56595E" transform="translate(497,160)"/>
<path d="M0 0 C2.15377564 2.62198774 3.40072174 4.64404172 4 8 C2.68 8 1.36 8 0 8 C0 7.34 0 6.68 0 6 C-0.66 6 -1.32 6 -2 6 C-2 4.68 -2 3.36 -2 2 C-1.34 2 -0.68 2 0 2 C0 1.34 0 0.68 0 0 Z " fill="#3E7AF0" transform="translate(276,93)"/>
<path d="M0 0 C1.17539996 0.92652701 2.34010577 1.86663387 3.5 2.8125 C4.1496875 3.33457031 4.799375 3.85664062 5.46875 4.39453125 C7 6 7 6 7 9 C5.35 9 3.7 9 2 9 C2 8.34 2 7.68 2 7 C2.66 7 3.32 7 4 7 C4 6.34 4 5.68 4 5 C3.34 5 2.68 5 2 5 C2 4.34 2 3.68 2 3 C1.34 3 0.68 3 0 3 C0 2.01 0 1.02 0 0 Z " fill="#2762DE" transform="translate(254,64)"/>
<path d="M0 0 C0.33 0.66 0.66 1.32 1 2 C3.01669827 3.13350534 3.01669827 3.13350534 5 4 C5 4.66 5 5.32 5 6 C6.32 6 7.64 6 9 6 C9 6.99 9 7.98 9 9 C5.40094092 8.44449305 4.00090201 7.25112752 1.75 4.4375 C1.22921875 3.79683594 0.7084375 3.15617188 0.171875 2.49609375 C-0.21484375 2.00238281 -0.6015625 1.50867188 -1 1 C-0.67 0.67 -0.34 0.34 0 0 Z " fill="#3672E2" transform="translate(121,199)"/>
<path d="M0 0 C1.57554035 2.88628401 2.46276373 5.53342384 3.125 8.75 C3.29257812 9.54921875 3.46015625 10.3484375 3.6328125 11.171875 C3.81457031 12.07679687 3.81457031 12.07679687 4 13 C3.01 13 2.02 13 1 13 C1.33 12.01 1.66 11.02 2 10 C1.34 10 0.68 10 0 10 C-1.125 2.25 -1.125 2.25 0 0 Z " fill="#616264" transform="translate(361,92)"/>
<path d="M0 0 C3.41158256 1.13719419 4.11854601 2.04342944 6 5 C6 5.66 6 6.32 6 7 C4.66666667 7.66666667 3.33333333 8.33333333 2 9 C1.34 6.03 0.68 3.06 0 0 Z " fill="#386FE4" transform="translate(264,76)"/>
<path d="M0 0 C2.3125 0.1875 2.3125 0.1875 4 1 C3.01 2.485 3.01 2.485 2 4 C1.67 3.67 1.34 3.34 1 3 C0.67 3.66 0.34 4.32 0 5 C-0.66 5 -1.32 5 -2 5 C-2.33 5.66 -2.66 6.32 -3 7 C-3.66 6.34 -4.32 5.68 -5 5 C-2.75 2.4375 -2.75 2.4375 0 0 Z " fill="#598CF0" transform="translate(238,180)"/>
<path d="M0 0 C1.65 0 3.3 0 5 0 C5 0.66 5 1.32 5 2 C7.31 1.34 9.62 0.68 12 0 C12 0.99 12 1.98 12 3 C11.01 3 10.02 3 9 3 C8.67 3.66 8.34 4.32 8 5 C5.36 3.68 2.72 2.36 0 1 C0 0.67 0 0.34 0 0 Z " fill="#4481F3" transform="translate(214,78)"/>
<path d="M0 0 C0.66 0 1.32 0 2 0 C3.61949011 2.57213134 4.04408751 3.67669159 3.625 6.75 C3.41875 7.4925 3.2125 8.235 3 9 C2.34 9 1.68 9 1 9 C1 7.68 1 6.36 1 5 C0.34 5 -0.32 5 -1 5 C-0.67 3.35 -0.34 1.7 0 0 Z " fill="#296CEA" transform="translate(261,72)"/>
<path d="M0 0 C3.9492568 0.55105909 7.34920174 1.38935371 11 3 C7.87819599 3.96661363 5.47916205 3.98988909 2.25 3.5625 C1.05117187 3.40974609 1.05117187 3.40974609 -0.171875 3.25390625 C-0.77515625 3.17011719 -1.3784375 3.08632813 -2 3 C-1.34 2.67 -0.68 2.34 0 2 C0 1.34 0 0.68 0 0 Z " fill="#3170EC" transform="translate(218,44)"/>
<path d="M0 0 C0.99 0 1.98 0 3 0 C3 1.98 3 3.96 3 6 C2.34 6 1.68 6 1 6 C1 5.34 1 4.68 1 4 C0.34 4 -0.32 4 -1 4 C-1.33 4.66 -1.66 5.32 -2 6 C-2 3 -2 3 0 0 Z " fill="#2F6AE8" transform="translate(245,171)"/>
<path d="M0 0 C2.12508244 3.18762365 2.5020163 5.26512223 3 9 C2.34 9 1.68 9 1 9 C-0.6875 7.25 -0.6875 7.25 -2 5 C-1.75203633 2.83031791 -1.55766393 1.55766393 0 0 Z " fill="#65686A" transform="translate(446,108)"/>
<path d="M0 0 C3 1 3 1 4.25 2.75 C5.17574966 5.52724898 4.77341204 7.21571665 4 10 C1.81024227 6.71536341 1.00193437 3.79303725 0 0 Z " fill="#3C3F40" transform="translate(360,194)"/>
<path d="M0 0 C0.99 0 1.98 0 3 0 C2.67 3.3 2.34 6.6 2 10 C0 8 0 8 -0.1953125 6.0546875 C-0.13020833 4.03645833 -0.06510417 2.01822917 0 0 Z " fill="#2E6AF1" transform="translate(282,117)"/>
<path d="M0 0 C1.32 0.33 2.64 0.66 4 1 C4.33 2.32 4.66 3.64 5 5 C2.69 5 0.38 5 -2 5 C-2 4.34 -2 3.68 -2 3 C-1.34 3 -0.68 3 0 3 C0 2.01 0 1.02 0 0 Z " fill="#2D6CE6" transform="translate(248,60)"/>
<path d="M0 0 C-2.49505962 2.49505962 -3.67328888 2.35948376 -7.125 2.625 C-8.03507813 2.69976562 -8.94515625 2.77453125 -9.8828125 2.8515625 C-10.93082031 2.92503906 -10.93082031 2.92503906 -12 3 C-7.82744729 -0.58050131 -5.33135955 -0.26656798 0 0 Z " fill="#2663E1" transform="translate(230,225)"/>
<path d="M0 0 C2.375 0.25 2.375 0.25 5 1 C6.3125 3.0625 6.3125 3.0625 7 5 C6.01 5.33 5.02 5.66 4 6 C2.62437146 4.71034824 1.29233607 3.37310707 0 2 C0 1.34 0 0.68 0 0 Z " fill="#336AE5" transform="translate(131,209)"/>
<path d="M0 0 C0.66 0.99 1.32 1.98 2 3 C0.68 4.65 -0.64 6.3 -2 8 C-3 7 -3 7 -3.25 4.5625 C-3.1675 3.716875 -3.085 2.87125 -3 2 C-2.01 1.34 -1.02 0.68 0 0 Z " fill="#3673E8" transform="translate(275,179)"/>
<path d="M0 0 C2.1723491 3.25852365 4.07119658 6.59244728 6 10 C5.01 10 4.02 10 3 10 C0.70366176 6.55549263 0.45983515 4.06187717 0 0 Z " fill="#437BE8" transform="translate(136,166)"/>
<path d="M0 0 C0.66 0.66 1.32 1.32 2 2 C1.53846154 8.46153846 1.53846154 8.46153846 -1 11 C-2.37473375 6.72305054 -1.38688443 4.16065329 0 0 Z " fill="#3C3E41" transform="translate(502,138)"/>
<path d="M0 0 C0.66 0 1.32 0 2 0 C2.25 6.625 2.25 6.625 0 10 C-1.125 2.25 -1.125 2.25 0 0 Z " fill="#3E3F42" transform="translate(832,187)"/>
<path d="M0 0 C2.29633824 3.44450737 2.54016485 5.93812283 3 10 C2.01 9.67 1.02 9.34 0 9 C0 6.03 0 3.06 0 0 Z " fill="#2264E5" transform="translate(101,157)"/>
<path d="M0 0 C2.5654594 2.5654594 2.54046087 4.47686668 3 8 C2.01 8 1.02 8 0 8 C-0.38063221 5.6739143 -0.71269945 3.33944736 -1 1 C-0.67 0.67 -0.34 0.34 0 0 Z " fill="#1F61E6" transform="translate(253,117)"/>
<path d="M0 0 C0.33 0.66 0.66 1.32 1 2 C1.66 2 2.32 2 3 2 C3 3.32 3 4.64 3 6 C3.66 6 4.32 6 5 6 C5 6.66 5 7.32 5 8 C3.68 7.67 2.36 7.34 1 7 C0.67 4.69 0.34 2.38 0 0 Z " fill="#2761DF" transform="translate(63,113)"/>
<path d="M0 0 C1.485 0.99 1.485 0.99 3 2 C3 3.32 3 4.64 3 6 C3.99 6.33 4.98 6.66 6 7 C5.01 7.66 4.02 8.32 3 9 C0.90250005 6.64031256 0.03094296 5.45383006 -0.1875 2.25 C-0.125625 1.5075 -0.06375 0.765 0 0 Z " fill="#3873E4" transform="translate(113,187)"/>
<path d="M0 0 C2.31 1.98 4.62 3.96 7 6 C6.34 6.66 5.68 7.32 5 8 C3.62437146 6.71034824 2.29233607 5.37310707 1 4 C1 3.34 1 2.68 1 2 C0.34 1.67 -0.32 1.34 -1 1 C-0.67 0.67 -0.34 0.34 0 0 Z " fill="#6F94F2" transform="translate(144,179)"/>
<path d="M0 0 C0.66 0 1.32 0 2 0 C2 1.98 2 3.96 2 6 C0.68 6 -0.64 6 -2 6 C-1.34 4.02 -0.68 2.04 0 0 Z " fill="#57595B" transform="translate(726,207)"/>
<path d="M0 0 C2 3 2 3 1.625 5.6875 C1.41875 6.450625 1.2125 7.21375 1 8 C0.01 7.67 -0.98 7.34 -2 7 C-1.34 4.69 -0.68 2.38 0 0 Z " fill="#626366" transform="translate(751,145)"/>
<path d="M0 0 C0.66 0.33 1.32 0.66 2 1 C0.02 3.31 -1.96 5.62 -4 8 C-4.66 7.34 -5.32 6.68 -6 6 C-4.02 4.02 -2.04 2.04 0 0 Z " fill="#5F6162" transform="translate(566,124)"/>
<path d="M0 0 C1.98 0.99 3.96 1.98 6 3 C3 5 3 5 -1 5 C-0.67 3.35 -0.34 1.7 0 0 Z " fill="#3673F5" transform="translate(153,188)"/>
<path d="M0 0 C-0.33 0.99 -0.66 1.98 -1 3 C-3.5625 4.1875 -3.5625 4.1875 -6 5 C-6.33 4.34 -6.66 3.68 -7 3 C-3.375 0 -3.375 0 0 0 Z " fill="#2D6DE6" transform="translate(235,186)"/>
<path d="M0 0 C3.16115776 1.36983503 3.9927092 1.9890638 6 5 C5.01 5.33 4.02 5.66 3 6 C1.68 4.35 0.36 2.7 -1 1 C-0.67 0.67 -0.34 0.34 0 0 Z " fill="#3F4345" transform="translate(928,82)"/>
<path d="M0 0 C0.91007812 0.10183594 1.82015625 0.20367187 2.7578125 0.30859375 C3.45648438 0.39238281 4.15515625 0.47617188 4.875 0.5625 C4.875 0.8925 4.875 1.2225 4.875 1.5625 C-1.065 2.0575 -1.065 2.0575 -7.125 2.5625 C-7.125 1.9025 -7.125 1.2425 -7.125 0.5625 C-4.50184968 -0.74907516 -2.89466564 -0.33399988 0 0 Z " fill="#3D7EF3" transform="translate(73.125,71.4375)"/>
</svg>
