<?xml version="1.0" encoding="UTF-8"?>
<svg version="1.1" xmlns="http://www.w3.org/2000/svg" width="273" height="273">
<path d="M0 0 C1.25013885 -0.00571014 2.50027771 -0.01142029 3.78829956 -0.01730347 C5.16107168 -0.01854862 6.53384391 -0.01967376 7.90661621 -0.02069092 C9.36260096 -0.02532401 10.8185845 -0.03034933 12.27456665 -0.03573608 C16.22130605 -0.04881912 20.16802847 -0.05529761 24.11478615 -0.05974674 C26.5863683 -0.0626855 29.05794591 -0.06679191 31.52952576 -0.07125092 C39.27908064 -0.08491817 47.028625 -0.09458729 54.77819109 -0.09845281 C63.69233769 -0.10292479 72.60633028 -0.12043583 81.52043009 -0.1494534 C88.43026998 -0.17115715 95.34006683 -0.18116178 102.2499404 -0.18249393 C106.36731495 -0.18353621 110.4845446 -0.18931944 114.60188293 -0.20731354 C118.48271031 -0.22394421 122.36328622 -0.22587811 126.24413681 -0.21717453 C127.65731867 -0.21641196 129.0705149 -0.22064191 130.48366165 -0.23063278 C156.79712431 -0.40554026 179.6233985 9.66468884 198.49450684 27.85528564 C217.83977675 47.52560166 226.82343944 74.08584302 226.71325684 101.37872314 C225.61360142 128.49461654 214.57352074 150.96591657 195.67810059 170.14044189 C195.02196777 170.80946533 194.36583496 171.47848877 193.68981934 172.16778564 C177.18983046 187.74914559 153.12636699 195.12178844 130.81481934 195.14434814 C102.99594764 193.70493451 78.81688132 183.63658296 59.67810059 163.14044189 C44.45185661 145.27220125 34.12721973 122.03549515 35.67810059 98.14044189 C34.39935059 98.20231689 33.12060059 98.26419189 31.80310059 98.32794189 C22.74462087 98.28528029 15.23410247 95.41446521 8.67810059 89.14044189 C6.44569467 86.60430728 4.51785247 83.97171115 2.67810059 81.14044189 C2.05935059 80.19169189 1.44060059 79.24294189 0.80310059 78.26544189 C-0.75411743 73.93983629 -0.95285622 69.69644166 -0.32189941 65.14044189 C2.93360819 61.88493429 6.72213097 62.16947524 11.1829834 62.03399658 C12.48590332 62.04334229 13.78882324 62.05268799 15.13122559 62.06231689 C15.85940491 62.06672791 16.58758423 62.07113892 17.33782959 62.07568359 C18.93263619 62.08654848 20.52742662 62.10002545 22.12219238 62.11578369 C24.78209149 62.14144515 27.44195394 62.15784972 30.10192871 62.17364502 C34.89670879 62.20664091 39.69049279 62.27009101 44.48474121 62.34796143 C46.46837142 62.37659046 48.45212462 62.39759011 50.43591309 62.41143799 C53.34534836 62.43280297 56.2534422 62.4792989 59.16247559 62.53106689 C60.48744049 62.53290985 60.48744049 62.53290985 61.83917236 62.53479004 C65.93544212 62.63261767 68.154423 62.81874882 71.71447754 65.00567627 C74.28765221 67.80311992 74.60027345 69.34980247 74.67810059 73.14044189 C74.11780378 75.78707001 73.485215 78.29970351 72.74060059 80.89044189 C68.07912963 98.97544294 70.62401947 114.88231014 79.11560059 131.51934814 C80.65654498 134.24354471 80.65654498 134.24354471 82.86560059 136.85528564 C84.67810059 139.14044189 84.67810059 139.14044189 84.67810059 141.14044189 C85.33810059 141.14044189 85.99810059 141.14044189 86.67810059 141.14044189 C86.67810059 141.80044189 86.67810059 142.46044189 86.67810059 143.14044189 C87.66810059 143.47044189 88.65810059 143.80044189 89.67810059 144.14044189 C89.67810059 144.80044189 89.67810059 145.46044189 89.67810059 146.14044189 C90.25817871 146.41243408 90.83825684 146.68442627 91.43591309 146.96466064 C93.65943278 148.13065268 95.53476326 149.46471262 97.55310059 150.95294189 C110.05316949 159.29311837 126.07405369 162.80597864 140.86560059 160.07794189 C151.84212181 157.74583115 161.07548477 154.39030374 169.55700684 146.90997314 C171.67810059 145.14044189 171.67810059 145.14044189 173.83044434 144.15216064 C176.2069255 142.85087392 176.5993733 141.58464675 177.67810059 139.14044189 C178.59316199 137.93556633 179.53225873 136.74868669 180.49060059 135.57794189 C184.12962223 130.80283544 186.43651207 125.68458431 188.67810059 120.14044189 C188.98876465 119.39923096 189.29942871 118.65802002 189.61950684 117.89434814 C195.09448889 103.47954031 192.94020229 87.05730001 187.08435059 73.13262939 C179.60957295 57.22796365 168.75651839 46.77232527 152.55310059 39.76544189 C143.03065744 36.37757933 133.5931531 35.85210278 123.56262207 35.90093994 C121.62354365 35.89784825 119.68446522 35.89475032 117.7453872 35.89141715 C115.68359155 35.8896053 113.62184855 35.89251221 111.56005669 35.89661217 C107.24233281 35.90428911 102.92477165 35.89349267 98.60707092 35.87940979 C86.33720175 35.84185657 74.06740959 35.82348047 61.79748535 35.83502197 C55.00318932 35.84125499 48.20915959 35.82958073 41.41492897 35.79857665 C37.13146437 35.7800256 32.84876041 35.78313895 28.56530941 35.80274427 C25.26479479 35.81129549 21.9646523 35.78715077 18.66418457 35.76812744 C16.90661583 35.78577904 16.90661583 35.78577904 15.11354065 35.80378723 C6.7101594 35.70908889 -0.01243337 33.97629608 -6.40178776 28.28913403 C-11.78106834 22.78230992 -16.38824914 14.96307788 -16.88439941 7.14044189 C-16.32189941 4.14044189 -16.32189941 4.14044189 -14.69689941 2.26544189 C-10.03190279 0.05570665 -5.08884753 0.01398474 0 0 Z " fill="#2266F1" transform="translate(26.3218994140625,36.85955810546875)"/>
<path d="M0 0 C1.25013885 -0.00571014 2.50027771 -0.01142029 3.78829956 -0.01730347 C5.16107168 -0.01854862 6.53384391 -0.01967376 7.90661621 -0.02069092 C9.36260096 -0.02532401 10.8185845 -0.03034933 12.27456665 -0.03573608 C16.22130605 -0.04881912 20.16802847 -0.05529761 24.11478615 -0.05974674 C26.5863683 -0.0626855 29.05794591 -0.06679191 31.52952576 -0.07125092 C39.27908064 -0.08491817 47.028625 -0.09458729 54.77819109 -0.09845281 C63.69233769 -0.10292479 72.60633028 -0.12043583 81.52043009 -0.1494534 C88.43026998 -0.17115715 95.34006683 -0.18116178 102.2499404 -0.18249393 C106.36731495 -0.18353621 110.4845446 -0.18931944 114.60188293 -0.20731354 C118.48271031 -0.22394421 122.36328622 -0.22587811 126.24413681 -0.21717453 C127.65731867 -0.21641196 129.0705149 -0.22064191 130.48366165 -0.23063278 C155.67066563 -0.39805261 176.82800072 8.77647724 195.67810059 25.14044189 C195.01810059 25.47044189 194.35810059 25.80044189 193.67810059 26.14044189 C191.31828245 25.20465195 188.98178794 24.20696382 186.67810059 23.14044189 C186.67810059 22.48044189 186.67810059 21.82044189 186.67810059 21.14044189 C186.01810059 21.14044189 185.35810059 21.14044189 184.67810059 21.14044189 C184.67810059 21.80044189 184.67810059 22.46044189 184.67810059 23.14044189 C182.69810059 23.14044189 180.71810059 23.14044189 178.67810059 23.14044189 C179.00810059 21.16044189 179.33810059 19.18044189 179.67810059 17.14044189 C178.68810059 17.14044189 177.69810059 17.14044189 176.67810059 17.14044189 C176.63685059 16.54231689 176.59560059 15.94419189 176.55310059 15.32794189 C175.81744305 12.90518679 175.81744305 12.90518679 173.24060059 11.45294189 C170.03806727 10.2730612 167.89276534 9.91999544 164.55310059 9.70294189 C160.03838858 9.38718079 158.78020305 8.44935119 155.67810059 5.14044189 C148.01058745 3.6299414 140.15492106 4.04073416 132.37365723 4.10284424 C130.82732371 4.11136172 129.28098767 4.11943181 127.73464966 4.12709045 C123.5553971 4.14918165 119.37621419 4.17786712 115.19701314 4.20804548 C110.82129809 4.23879729 106.44555213 4.26436063 102.06980896 4.29074097 C94.73047096 4.33584141 87.39117204 4.3853209 80.05187988 4.43731689 C71.55733531 4.49743421 63.06276837 4.55016605 54.56815249 4.59908521 C46.39675143 4.64634612 38.22539524 4.69917861 30.05404472 4.75444412 C26.57439482 4.77785544 23.09474111 4.79922148 19.61506844 4.81895065 C15.52663464 4.84235489 11.43826274 4.87059008 7.34988785 4.90263939 C5.84579683 4.91363079 4.34169225 4.92291158 2.83757973 4.93040276 C0.79330771 4.9408576 -1.25092708 4.9579752 -3.29515076 4.97549438 C-4.4416104 4.98324575 -5.58807005 4.99099712 -6.7692709 4.99898338 C-9.25594885 4.85219202 -9.25594885 4.85219202 -10.32189941 6.14044189 C-11.98807057 6.18108022 -13.65578036 6.1831629 -15.32189941 6.14044189 C-14.78564941 6.88294189 -14.24939941 7.62544189 -13.69689941 8.39044189 C-13.24314941 9.29794189 -12.78939941 10.20544189 -12.32189941 11.14044189 C-13.13439941 13.45294189 -13.13439941 13.45294189 -14.32189941 15.14044189 C-16.65202206 11.49962525 -16.78559936 8.39102477 -16.32189941 4.14044189 C-12.32314129 -0.47350979 -5.68122443 0.01561266 0 0 Z " fill="#5D87D5" transform="translate(26.3218994140625,36.85955810546875)"/>
<path d="M0 0 C0.72817932 0.00441101 1.45635864 0.00882202 2.206604 0.0133667 C3.80141061 0.02423158 5.39620104 0.03770856 6.9909668 0.0534668 C9.6508659 0.07912826 12.31072835 0.09553283 14.97070312 0.11132812 C19.76548321 0.14432401 24.5592672 0.20777412 29.35351562 0.28564453 C31.33714584 0.31427357 33.32089903 0.33527322 35.3046875 0.34912109 C38.21412277 0.37048607 41.12221661 0.41698201 44.03125 0.46875 C45.3562149 0.47059296 45.3562149 0.47059296 46.70794678 0.47247314 C50.80481609 0.57031509 53.02293445 0.75607598 56.58300781 2.94433594 C59.16235816 5.7468623 59.4737856 7.27747608 59.546875 11.078125 C59.04164633 13.82221013 58.33402673 16.39254852 57.546875 19.078125 C57.4025 18.43875 57.258125 17.799375 57.109375 17.140625 C56.73680319 15.10267354 56.73680319 15.10267354 55.546875 14.078125 C55.40572339 11.40753649 55.50440393 8.75380262 55.546875 6.078125 C54.886875 6.078125 54.226875 6.078125 53.546875 6.078125 C53.546875 5.418125 53.546875 4.758125 53.546875 4.078125 C45.12374312 4.05496621 36.70062452 4.03719183 28.27746868 4.02631283 C24.36636417 4.02109176 20.45528143 4.01400815 16.54418945 4.00268555 C12.77056985 3.99182916 8.99697119 3.98584231 5.22333717 3.98324776 C3.78282148 3.98139848 2.34230694 3.97778738 0.90180016 3.97239494 C-1.1140392 3.96514814 -3.12989958 3.96471663 -5.14575195 3.96459961 C-6.29380814 3.962379 -7.44186432 3.96015839 -8.62471008 3.95787048 C-11.53207988 3.95130775 -11.53207988 3.95130775 -14.453125 5.078125 C-14.453125 7.058125 -14.453125 9.038125 -14.453125 11.078125 C-13.793125 11.078125 -13.133125 11.078125 -12.453125 11.078125 C-12.453125 11.738125 -12.453125 12.398125 -12.453125 13.078125 C-11.793125 13.078125 -11.133125 13.078125 -10.453125 13.078125 C-9.793125 16.048125 -9.133125 19.018125 -8.453125 22.078125 C-11.81843237 20.95635588 -12.07429979 20.62324427 -13.640625 17.640625 C-15.86511875 12.92742559 -16.27452473 8.21664889 -15.453125 3.078125 C-11.46366055 -0.91133945 -5.33706399 -0.03828218 0 0 Z " fill="#3966BD" transform="translate(41.453125,98.921875)"/>
<path d="M0 0 C1.05726791 0.00429016 2.11453583 0.00858032 3.20384216 0.01300049 C4.35830338 0.03313705 5.51276459 0.05327362 6.70220947 0.07402039 C7.9219899 0.08333588 9.14177032 0.09265137 10.39851379 0.10224915 C13.73939022 0.13072606 17.07959043 0.17264884 20.42021084 0.22054696 C23.91280854 0.26744696 27.40555133 0.29716516 30.89831543 0.32870483 C37.51051354 0.3910246 44.12243596 0.46879934 50.73439908 0.55212516 C58.26264735 0.64624583 65.79104071 0.72314015 73.31949568 0.79858649 C88.80440471 0.95415439 104.28898896 1.13135873 119.77349854 1.32279968 C119.77349854 1.65279968 119.77349854 1.98279968 119.77349854 2.32279968 C78.85349854 2.32279968 37.93349854 2.32279968 -4.22650146 2.32279968 C-4.22650146 2.98279968 -4.22650146 3.64279968 -4.22650146 4.32279968 C-5.54650146 4.32279968 -6.86650146 4.32279968 -8.22650146 4.32279968 C-7.91712646 4.90029968 -7.60775146 5.47779968 -7.28900146 6.07279968 C-6.28141587 8.20651036 -5.53830274 9.98429008 -5.22650146 12.32279968 C-5.88650146 12.98279968 -6.54650146 13.64279968 -7.22650146 14.32279968 C-9.55662411 10.68198304 -9.69020141 7.57338256 -9.22650146 3.32279968 C-6.27610089 0.37607218 -4.08944129 -0.04516451 0 0 Z " fill="#3269C8" transform="translate(19.22650146484375,37.67720031738281)"/>
<path d="M0 0 C17.83663901 0.62584698 33.97557238 11.69336106 47 23 C46.01 23.495 46.01 23.495 45 24 C42.64018187 23.06421005 40.30368736 22.06652192 38 21 C38 20.34 38 19.68 38 19 C37.34 19 36.68 19 36 19 C36 19.66 36 20.32 36 21 C34.02 21 32.04 21 30 21 C30.33 19.02 30.66 17.04 31 15 C30.01 15 29.02 15 28 15 C27.95875 14.401875 27.9175 13.80375 27.875 13.1875 C27.13934246 10.7647449 27.13934246 10.7647449 24.5625 9.3125 C21.35996668 8.1326193 19.21466476 7.77955354 15.875 7.5625 C11.39296708 7.24855731 10.03787258 6.35213526 7 3 C3.35278304 2.19234122 3.35278304 2.19234122 0 2 C0 1.34 0 0.68 0 0 Z " fill="#2665EA" transform="translate(175,39)"/>
<path d="M0 0 C3 1 3 1 4.16796875 2.77734375 C4.50441406 3.49019531 4.84085938 4.20304687 5.1875 4.9375 C5.70376953 6.00291016 5.70376953 6.00291016 6.23046875 7.08984375 C7 9 7 9 7 11 C7.66 11 8.32 11 9 11 C10.64869666 13.96765398 11.56734434 16.62528585 12 20 C11.67 20.99 11.34 21.98 11 23 C11.66 23 12.32 23 13 23 C15.10375127 46.29153197 15.10375127 46.29153197 12 52 C11.83249586 54.66709069 11.83249586 54.66709069 12 57 C10.68 57 9.36 57 8 57 C8.309375 55.948125 8.61875 54.89625 8.9375 53.8125 C13.62575214 34.58729339 9.05512998 17.10413441 0 0 Z " fill="#2B60C9" transform="translate(208,99)"/>
<path d="M0 0 C0.93199219 0.33773437 1.86398438 0.67546875 2.82421875 1.0234375 C11.16312231 3.96729149 19.16854028 6.00217909 28 7 C28 7.66 28 8.32 28 9 C23.33333333 9 18.66666667 9 14 9 C13.01 9.66 12.02 10.32 11 11 C9 10.6875 9 10.6875 7 10 C6.01 9.67 5.02 9.34 4 9 C3.64587656 7.67203709 3.31478446 6.33783393 3 5 C2.01979625 3.9805881 1.02196992 2.97753644 0 2 C0 1.34 0 0.68 0 0 Z " fill="#2065ED" transform="translate(128,191)"/>
<path d="M0 0 C1.93676758 0.0234375 1.93676758 0.0234375 4.33203125 0.375 C10.46948449 1.12494936 16.51264253 1.07390613 22.6875 1 C35.69775755 0.8459413 35.69775755 0.8459413 42 2 C42 2.33 42 2.66 42 3 C26.82204968 5.24789717 13.16098533 4.90797298 -2 2 C-1.34 1.34 -0.68 0.68 0 0 Z " fill="#3862AF" transform="translate(136,227)"/>
<path d="M0 0 C-5.15026897 11.97163585 -20.52999561 20.97772929 -32 26 C-34 25 -34 25 -35 23 C-29.06 21.515 -29.06 21.515 -23 20 C-23 19.01 -23 18.02 -23 17 C-22.34 17 -21.68 17 -21 17 C-21 16.34 -21 15.68 -21 15 C-20.34 15 -19.68 15 -19 15 C-19 14.34 -19 13.68 -19 13 C-16.69 12.34 -14.38 11.68 -12 11 C-11.67 9.68 -11.34 8.36 -11 7 C-10.34 7 -9.68 7 -9 7 C-9 6.34 -9 5.68 -9 5 C-7.68 4.67 -6.36 4.34 -5 4 C-5 3.01 -5 2.02 -5 1 C-3 0 -3 0 0 0 Z " fill="#2E54A2" transform="translate(230,197)"/>
<path d="M0 0 C0.33 0.66 0.66 1.32 1 2 C1.66 2 2.32 2 3 2 C2.69430564 6.29218017 2.37929775 10.58362619 2.0625 14.875 C1.97548828 16.09832031 1.88847656 17.32164062 1.79882812 18.58203125 C1.71181641 19.74863281 1.62480469 20.91523438 1.53515625 22.1171875 C1.456604 23.19597168 1.37805176 24.27475586 1.29711914 25.38623047 C1 28 1 28 0 30 C-0.66 30 -1.32 30 -2 30 C-2.05869332 26.50007197 -2.09382709 23.0002728 -2.125 19.5 C-2.14175781 18.51773438 -2.15851563 17.53546875 -2.17578125 16.5234375 C-2.21499874 10.64081335 -1.70432638 5.63635497 0 0 Z " fill="#2765D8" transform="translate(95,116)"/>
<path d="M0 0 C0.66 0 1.32 0 2 0 C2 0.66 2 1.32 2 2 C2.639375 1.835 3.27875 1.67 3.9375 1.5 C8.00428188 0.83603561 11.87979829 0.93850445 16 1 C16 4.96 16 8.92 16 13 C16.99 13 17.98 13 19 13 C19 18.28 19 23.56 19 29 C14.33045859 21.99568789 14.67389212 12.1889313 15 4 C14.14728516 4.03480469 14.14728516 4.03480469 13.27734375 4.0703125 C8.07441352 4.19191688 3.92687757 3.67723492 -1 2 C-0.67 1.34 -0.34 0.68 0 0 Z " fill="#1D48A2" transform="translate(47,131)"/>
<path d="M0 0 C0.99 0.33 1.98 0.66 3 1 C3.66015625 2.77734375 3.66015625 2.77734375 4.0625 4.9375 C4.70261846 8.35102341 4.70261846 8.35102341 7 11 C7 12.32 7 13.64 7 15 C7.66 15 8.32 15 9 15 C9 16.32 9 17.64 9 19 C9.99 19 10.98 19 12 19 C12 19.66 12 20.32 12 21 C12.639375 21.103125 13.27875 21.20625 13.9375 21.3125 C14.9584375 21.6528125 14.9584375 21.6528125 16 22 C16.33 22.99 16.66 23.98 17 25 C16.67 25.66 16.34 26.32 16 27 C16.66 27.33 17.32 27.66 18 28 C16.68 28.33 15.36 28.66 14 29 C7.9076227 19.764869 2.22990752 10.94681873 0 0 Z " fill="#1D54BE" transform="translate(66,163)"/>
<path d="M0 0 C0.90063171 0.02024734 1.80126343 0.04049469 2.72918701 0.06135559 C3.69286194 0.09871323 4.65653687 0.13607086 5.64941406 0.17456055 C6.64257629 0.20100143 7.63573853 0.22744232 8.65899658 0.25468445 C11.82829269 0.34239151 14.996436 0.45156179 18.16503906 0.5612793 C20.31473745 0.62454379 22.46447749 0.68640965 24.61425781 0.74682617 C29.88177561 0.89792308 35.14850813 1.06664247 40.41503906 1.2487793 C40.41503906 1.5787793 40.41503906 1.9087793 40.41503906 2.2487793 C25.89503906 2.2487793 11.37503906 2.2487793 -3.58496094 2.2487793 C-3.58496094 2.9087793 -3.58496094 3.5687793 -3.58496094 4.2487793 C-4.90496094 4.2487793 -6.22496094 4.2487793 -7.58496094 4.2487793 C-7.27558594 4.8262793 -6.96621094 5.4037793 -6.64746094 5.9987793 C-5.63987534 8.13248997 -4.89676222 9.9102697 -4.58496094 12.2487793 C-5.24496094 12.9087793 -5.90496094 13.5687793 -6.58496094 14.2487793 C-8.91508359 10.60796266 -9.04866089 7.49936217 -8.58496094 3.2487793 C-5.79244089 0.51668355 -3.85378367 -0.11907759 0 0 Z " fill="#3268C9" transform="translate(18.5849609375,37.751220703125)"/>
<path d="M0 0 C1.65 0 3.3 0 5 0 C5 0.66 5 1.32 5 2 C5.99 2.33 6.98 2.66 8 3 C8.66 3.66 9.32 4.32 10 5 C11.7634375 5.4640625 11.7634375 5.4640625 13.5625 5.9375 C14.696875 6.288125 15.83125 6.63875 17 7 C17.33 7.99 17.66 8.98 18 10 C18.99 10 19.98 10 21 10 C21.33 10.66 21.66 11.32 22 12 C22.99 12.33 23.98 12.66 25 13 C24.34 13 23.68 13 23 13 C23 13.66 23 14.32 23 15 C18.01363133 13.57968672 14.10589991 11.42922705 9.8125 8.625 C9.19697266 8.23828125 8.58144531 7.8515625 7.94726562 7.453125 C4.64217693 5.31896155 2.10313494 3.34972038 0 0 Z " fill="#2D60C7" transform="translate(96,208)"/>
<path d="M0 0 C0.33 0 0.66 0 1 0 C1.49155247 8.06510168 0.04937325 15.21726112 -2 23 C-4.67927341 18.98108988 -4.15601248 16.75838077 -4 12 C-4.66 12 -5.32 12 -6 12 C-6 10.35 -6 8.7 -6 7 C-5.34 6.67 -4.68 6.34 -4 6 C-3.67 6.99 -3.34 7.98 -3 9 C-2.01 6.03 -1.02 3.06 0 0 Z " fill="#1D51BA" transform="translate(251,140)"/>
<path d="M0 0 C10.77254647 0.37798409 20.53291923 5.1428495 30 10 C29.01 10.33 28.02 10.66 27 11 C26.154375 10.54625 25.30875 10.0925 24.4375 9.625 C21.138492 8.06546894 19.41542338 7.76585274 15.875 7.5625 C11.39296708 7.24855731 10.03787258 6.35213526 7 3 C3.35278304 2.19234122 3.35278304 2.19234122 0 2 C0 1.34 0 0.68 0 0 Z " fill="#2050B0" transform="translate(175,39)"/>
<path d="M0 0 C0.99 0.33 1.98 0.66 3 1 C1.58220053 4.87249706 -0.22984788 8.20748064 -2.4375 11.6875 C-3.33275391 13.11642578 -3.33275391 13.11642578 -4.24609375 14.57421875 C-6 17 -6 17 -9 19 C-9.625 16.625 -9.625 16.625 -10 14 C-9.34 13.34 -8.68 12.68 -8 12 C-6.68 12 -5.36 12 -4 12 C-4 10.35 -4 8.7 -4 7 C-3.34 6.67 -2.68 6.34 -2 6 C-2 4.68 -2 3.36 -2 2 C-1.34 2 -0.68 2 0 2 C0 1.34 0 0.68 0 0 Z " fill="#2E56AE" transform="translate(239,178)"/>
<path d="M0 0 C0.33 0 0.66 0 1 0 C2.7108173 7.91253 2.41031837 16.06695918 1 24 C-1 22 -1 22 -1.23046875 18.76953125 C-1.21628906 17.46371094 -1.20210937 16.15789062 -1.1875 14.8125 C-1.18105469 13.51957031 -1.17460937 12.22664063 -1.16796875 10.89453125 C-1.00728646 7.16894409 -0.59561728 3.67376737 0 0 Z " fill="#2662D9" transform="translate(250,114)"/>
<path d="M0 0 C-1.57973684 3.8288537 -4.02060457 6.28773759 -6.9375 9.1875 C-8.25041016 10.50814453 -8.25041016 10.50814453 -9.58984375 11.85546875 C-12 14 -12 14 -15 15 C-15 14.34 -15 13.68 -15 13 C-14 12 -13 11 -12 10 C-11.67 9.01 -11.34 8.02 -11 7 C-10.34 7 -9.68 7 -9 7 C-9 6.34 -9 5.68 -9 5 C-7.68 4.67 -6.36 4.34 -5 4 C-5 3.01 -5 2.02 -5 1 C-3 0 -3 0 0 0 Z " fill="#163A84" transform="translate(230,197)"/>
<path d="M0 0 C3.5971589 1.89324152 5.64915621 3.1095699 7 7 C6.7578125 9.796875 6.7578125 9.796875 6.125 12.75 C5.92132813 13.73484375 5.71765625 14.7196875 5.5078125 15.734375 C5.34023437 16.48203125 5.17265625 17.2296875 5 18 C4.7834375 17.0409375 4.7834375 17.0409375 4.5625 16.0625 C4.18992819 14.02454854 4.18992819 14.02454854 3 13 C2.85884839 10.32941149 2.95752893 7.67567762 3 5 C2.34 5 1.68 5 1 5 C0.67 3.35 0.34 1.7 0 0 Z " fill="#2E55A1" transform="translate(94,100)"/>
<path d="M0 0 C5.7266425 2.9826263 10.26638344 6.62294157 15 11 C14.01 11.495 14.01 11.495 13 12 C10.64018187 11.06421005 8.30368736 10.06652192 6 9 C6 7.68 6 6.36 6 5 C3.03 4.505 3.03 4.505 0 4 C0 2.68 0 1.36 0 0 Z " fill="#2955A9" transform="translate(207,51)"/>
<path d="M0 0 C0.66 0.33 1.32 0.66 2 1 C-0.35663238 4.87161034 -1.88392353 7.14112675 -6 9 C-6.7115625 10.051875 -6.7115625 10.051875 -7.4375 11.125 C-9 13 -9 13 -11.6875 13.25 C-12.450625 13.1675 -13.21375 13.085 -14 13 C-11.56039786 10.46281378 -9.01479593 8.07566573 -6.375 5.75 C-5.78460938 5.22921875 -5.19421875 4.7084375 -4.5859375 4.171875 C-3 3 -3 3 -1 3 C-0.67 2.01 -0.34 1.02 0 0 Z " fill="#2050B0" transform="translate(203,177)"/>
<path d="M0 0 C3.16860855 2.65478014 4.50301588 5.83999806 6.1875 9.5625 C6.98220703 11.29693359 6.98220703 11.29693359 7.79296875 13.06640625 C9 16 9 16 9 18 C8.01 18 7.02 18 6 18 C5.87625 17.360625 5.7525 16.72125 5.625 16.0625 C5.41875 15.381875 5.2125 14.70125 5 14 C4.34 13.67 3.68 13.34 3 13 C3.33 12.01 3.66 11.02 4 10 C3.505 9.54625 3.01 9.0925 2.5 8.625 C1 7 1 7 1 5 C0.34 4.34 -0.32 3.68 -1 3 C-0.67 2.01 -0.34 1.02 0 0 Z " fill="#2F56A7" transform="translate(238,84)"/>
<path d="M0 0 C5.1154241 3.36156441 7.3265957 7.67594378 10 13 C9.01 13.495 9.01 13.495 8 14 C7.34 13.01 6.68 12.02 6 11 C5.01 11.495 5.01 11.495 4 12 C3.67 10.02 3.34 8.04 3 6 C2.34 6 1.68 6 1 6 C0.67 4.02 0.34 2.04 0 0 Z " fill="#254FA6" transform="translate(228,70)"/>
<path d="M0 0 C0 0.66 0 1.32 0 2 C-1.32 2 -2.64 2 -4 2 C-4 2.66 -4 3.32 -4 4 C-5.32 4 -6.64 4 -8 4 C-7.690625 4.5775 -7.38125 5.155 -7.0625 5.75 C-6.0549144 7.88371067 -5.31180128 9.6614904 -5 12 C-5.66 12.66 -6.32 13.32 -7 14 C-9.33012265 10.35918336 -9.46369995 7.25058287 -9 3 C-6.29148704 -0.10977414 -4.00164289 -0.33347024 0 0 Z " fill="#2D5AB3" transform="translate(19,38)"/>
<path d="M0 0 C3 1 3 1 4.16796875 2.77734375 C4.50441406 3.49019531 4.84085938 4.20304687 5.1875 4.9375 C5.70376953 6.00291016 5.70376953 6.00291016 6.23046875 7.08984375 C7 9 7 9 7 11 C7.66 11 8.32 11 9 11 C10.64826111 13.96687001 11.44271087 16.65626525 12 20 C11.34 20 10.68 20 10 20 C10 19.01 10 18.02 10 17 C9.34 17 8.68 17 8 17 C4.04 8.585 4.04 8.585 0 0 Z " fill="#2653A8" transform="translate(208,99)"/>
<path d="M0 0 C1.16015625 0.30744141 1.16015625 0.30744141 2.34375 0.62109375 C8.2359543 2.14519115 13.94061808 3.41736712 20 4 C20 4.66 20 5.32 20 6 C18.04196493 6.05389087 16.08351091 6.09274217 14.125 6.125 C13.03445312 6.14820313 11.94390625 6.17140625 10.8203125 6.1953125 C8 6 8 6 6 4 C4.01643517 3.28591666 2.01684563 2.61382258 0 2 C0 1.34 0 0.68 0 0 Z " fill="#2855AD" transform="translate(136,194)"/>
<path d="M0 0 C0.33 0 0.66 0 1 0 C1.02690844 2.62506802 1.04679404 5.24986173 1.0625 7.875 C1.07087891 8.62136719 1.07925781 9.36773437 1.08789062 10.13671875 C1.11328125 15.7734375 1.11328125 15.7734375 0 18 C-0.66 18 -1.32 18 -2 18 C-2.20190089 11.64012196 -1.6277833 6.14778871 0 0 Z " fill="#194599" transform="translate(95,128)"/>
<path d="M0 0 C0.66 0 1.32 0 2 0 C2.33 1.98 2.66 3.96 3 6 C3.66 6 4.32 6 5 6 C5 10.29 5 14.58 5 19 C4.34 19 3.68 19 3 19 C2.86722656 17.96359375 2.73445312 16.9271875 2.59765625 15.859375 C2.41939361 14.48956735 2.24100138 13.11977656 2.0625 11.75 C1.97548828 11.06808594 1.88847656 10.38617188 1.79882812 9.68359375 C1.3684062 6.39963389 0.91205869 3.18809706 0 0 Z " fill="#3560B1" transform="translate(216,116)"/>
<path d="M0 0 C0.33 0.66 0.66 1.32 1 2 C1.99 2 2.98 2 4 2 C4.33 3.98 4.66 5.96 5 8 C5.66 8 6.32 8 7 8 C7.33 9.98 7.66 11.96 8 14 C7.34 14 6.68 14 6 14 C5.67386719 13.31292969 5.34773437 12.62585938 5.01171875 11.91796875 C4.57472656 11.01691406 4.13773438 10.11585937 3.6875 9.1875 C3.25824219 8.29417969 2.82898438 7.40085937 2.38671875 6.48046875 C1.11778211 4.21068067 -0.06556898 2.70751829 -2 1 C-1.34 0.67 -0.68 0.34 0 0 Z M4 1 C6 2 6 2 6 2 Z " fill="#2666E6" transform="translate(209,96)"/>
<path d="M0 0 C6.11090483 -0.09945415 11.97403427 -0.0712828 18 1 C18 1.33 18 1.66 18 2 C10.08 2.495 10.08 2.495 2 3 C2 2.34 2 1.68 2 1 C1.34 0.67 0.68 0.34 0 0 Z " fill="#254EA0" transform="translate(160,228)"/>
<path d="M0 0 C1.51056694 0.89914699 3.00825429 1.81996101 4.5 2.75 C5.3353125 3.26046875 6.170625 3.7709375 7.03125 4.296875 C8.00578125 5.13992187 8.00578125 5.13992187 9 6 C9 7.32 9 8.64 9 10 C5.09061496 8.69687165 2.58220925 7.25167091 0 4 C0 2.68 0 1.36 0 0 Z " fill="#2557BA" transform="translate(117,183)"/>
<path d="M0 0 C1.32 0 2.64 0 4 0 C4 5.28 4 10.56 4 16 C1.72525723 12.58788584 1.43370356 10.3431471 0.875 6.3125 C0.70742188 5.13300781 0.53984375 3.95351562 0.3671875 2.73828125 C0.24601562 1.83464844 0.12484375 0.93101562 0 0 Z " fill="#2658C0" transform="translate(62,144)"/>
<path d="M0 0 C2.97 0.33 5.94 0.66 9 1 C8.67 1.66 8.34 2.32 8 3 C1.07 3 -5.86 3 -13 3 C-13 2.67 -13 2.34 -13 2 C-8.71 2 -4.42 2 0 2 C0 1.34 0 0.68 0 0 Z " fill="#4273D2" transform="translate(165,37)"/>
<path d="M0 0 C0.99 0.33 1.98 0.66 3 1 C3.66015625 2.77734375 3.66015625 2.77734375 4.0625 4.9375 C4.70261846 8.35102341 4.70261846 8.35102341 7 11 C7 12.32 7 13.64 7 15 C7.66 15 8.32 15 9 15 C9 15.66 9 16.32 9 17 C7.171875 16.44140625 7.171875 16.44140625 5 15 C3.89911782 12.60992685 3.03841289 10.42422368 2.25 7.9375 C1.91935547 6.96200195 1.91935547 6.96200195 1.58203125 5.96679688 C0 1.24526883 0 1.24526883 0 0 Z " fill="#3C64B8" transform="translate(66,163)"/>
<path d="M0 0 C2.64 0.33 5.28 0.66 8 1 C8.12375 1.639375 8.2475 2.27875 8.375 2.9375 C8.58125 3.618125 8.7875 4.29875 9 5 C9.66 5.33 10.32 5.66 11 6 C10.67 6.66 10.34 7.32 10 8 C4.98886765 6.5682479 3.05530451 4.01554307 0 0 Z " fill="#2854AC" transform="translate(17,61)"/>
<path d="M0 0 C0.33 0.66 0.66 1.32 1 2 C0.34 2 -0.32 2 -1 2 C-1.33 2.99 -1.66 3.98 -2 5 C-2.66 5 -3.32 5 -4 5 C-4.33 5.66 -4.66 6.32 -5 7 C-5.33 6.67 -5.66 6.34 -6 6 C-8.33297433 5.95907063 -10.66705225 5.95758277 -13 6 C-10.25906335 4.1727089 -7.86174676 3.06301822 -4.8125 1.875 C-3.91144531 1.52179688 -3.01039063 1.16859375 -2.08203125 0.8046875 C-1.39496094 0.53914062 -0.70789063 0.27359375 0 0 Z " fill="#3C69C3" transform="translate(188,190)"/>
<path d="M0 0 C2 2 2 2 2.125 5.125 C2.08375 6.07375 2.0425 7.0225 2 8 C1.67 7.34 1.34 6.68 1 6 C0.34 6 -0.32 6 -1 6 C-0.67 7.32 -0.34 8.64 0 10 C-2.2477975 7.94766315 -3.0022242 6.99332739 -4 4 C-3.34 4 -2.68 4 -2 4 C-2 3.34 -2 2.68 -2 2 C-1.34 2 -0.68 2 0 2 C0 1.34 0 0.68 0 0 Z " fill="#1C56CA" transform="translate(17,50)"/>
<path d="M0 0 C0.99 0.33 1.98 0.66 3 1 C1.66511872 4.59391114 0.03977277 7.75490696 -2 11 C-3.53445094 7.93109813 -2.54984289 5.29905734 -2 2 C-1.34 2 -0.68 2 0 2 C0 1.34 0 0.68 0 0 Z " fill="#214B9A" transform="translate(239,178)"/>
<path d="M0 0 C0.66 0.66 1.32 1.32 2 2 C2.99 2 3.98 2 5 2 C5.33 2.66 5.66 3.32 6 4 C6.99 4.33 7.98 4.66 9 5 C8.34 5 7.68 5 7 5 C7 5.66 7 6.32 7 7 C3.22454612 5.90931332 0.52956528 5.0916909 -2 2 C-1.34 1.34 -0.68 0.68 0 0 Z " fill="#315AA6" transform="translate(112,216)"/>
<path d="M0 0 C8.57142857 -0.28571429 8.57142857 -0.28571429 12 2 C8.49852959 3.1671568 5.67329964 3.13357453 2 3 C1.34 2.67 0.68 2.34 0 2 C0 1.34 0 0.68 0 0 Z " fill="#2E64C9" transform="translate(159,198)"/>
<path d="M0 0 C0.12375 0.763125 0.2475 1.52625 0.375 2.3125 C0.88102792 5.20267136 0.88102792 5.20267136 3 8 C2.67 8.66 2.34 9.32 2 10 C-0.31 7.69 -2.62 5.38 -5 3 C-1.125 0 -1.125 0 0 0 Z " fill="#1B4BA2" transform="translate(91,197)"/>
<path d="M0 0 C0.33 0.66 0.66 1.32 1 2 C1.66 2 2.32 2 3 2 C2.67 4.97 2.34 7.94 2 11 C1.67 10.01 1.34 9.02 1 8 C0.34 8 -0.32 8 -1 8 C-0.67 5.36 -0.34 2.72 0 0 Z " fill="#2254B8" transform="translate(95,116)"/>
<path d="M0 0 C2.12046792 3.53411321 2.53199289 6.94393835 3 11 C2.01 11 1.02 11 0 11 C0 9.02 0 7.04 0 5 C-0.66 5 -1.32 5 -2 5 C-1.34 3.35 -0.68 1.7 0 0 Z " fill="#224DA4" transform="translate(247,103)"/>
<path d="M0 0 C0.99 0 1.98 0 3 0 C3.33 0.99 3.66 1.98 4 3 C6.01508358 3.73323796 6.01508358 3.73323796 8 4 C7.67 5.32 7.34 6.64 7 8 C4.36 6.02 1.72 4.04 -1 2 C-0.67 1.34 -0.34 0.68 0 0 Z " fill="#2A54AD" transform="translate(194,82)"/>
<path d="M0 0 C0.66 0 1.32 0 2 0 C2 0.66 2 1.32 2 2 C3.0725 2.28875 4.145 2.5775 5.25 2.875 C8.09400364 3.72820109 10.43508983 4.5636503 13 6 C12.67 6.66 12.34 7.32 12 8 C7.1725201 6.58707905 3.2837641 4.57025846 -1 2 C-0.67 1.34 -0.34 0.68 0 0 Z " fill="#385DA3" transform="translate(181,75)"/>
<path d="M0 0 C2 3 2 3 1.5390625 6.13671875 C1.23742187 7.30847656 0.93578125 8.48023438 0.625 9.6875 C0.32851562 10.86699219 0.03203125 12.04648438 -0.2734375 13.26171875 C-0.51320312 14.16535156 -0.75296875 15.06898438 -1 16 C-1.33 16 -1.66 16 -2 16 C-2 12.37 -2 8.74 -2 5 C-1.67 5 -1.34 5 -1 5 C-0.67 3.35 -0.34 1.7 0 0 Z " fill="#587FD2" transform="translate(251,131)"/>
<path d="M0 0 C1.37562854 1.28965176 2.70766393 2.62689293 4 4 C4 4.66 4 5.32 4 6 C4.66 6 5.32 6 6 6 C5.67 6.66 5.34 7.32 5 8 C4.01 8.33 3.02 8.66 2 9 C2 8.01 2 7.02 2 6 C1.34 6 0.68 6 0 6 C0 4.02 0 2.04 0 0 Z " fill="#3258AE" transform="translate(107,172)"/>
<path d="M0 0 C0.66666667 2.66666667 1.33333333 5.33333333 2 8 C0.35 7.67 -1.3 7.34 -3 7 C-3.33 5.35 -3.66 3.7 -4 2 C-2.68 1.34 -1.36 0.68 0 0 Z " fill="#2A68E4" transform="translate(20,54)"/>
<path d="M0 0 C1.65 0 3.3 0 5 0 C5 0.66 5 1.32 5 2 C5.99 2.33 6.98 2.66 8 3 C7.67 4.32 7.34 5.64 7 7 C5.83040013 6.02433888 4.66438823 5.044375 3.5 4.0625 C2.8503125 3.51722656 2.200625 2.97195312 1.53125 2.41015625 C1.0259375 1.94480469 0.520625 1.47945312 0 1 C0 0.67 0 0.34 0 0 Z " fill="#244A9D" transform="translate(96,208)"/>
<path d="M0 0 C0.33 0 0.66 0 1 0 C2.22517308 5.66642551 2.09228867 11.23708518 2 17 C1.67 17 1.34 17 1 17 C0.855625 15.906875 0.71125 14.81375 0.5625 13.6875 C0.11711896 10.06877013 0.11711896 10.06877013 -1 7 C-0.72230092 4.6593935 -0.39460023 2.32375692 0 0 Z " fill="#1D3A75" transform="translate(250,114)"/>
<path d="M0 0 C2.64 0.99 5.28 1.98 8 3 C8 3.66 8 4.32 8 5 C5.69 4.67 3.38 4.34 1 4 C0.67 2.68 0.34 1.36 0 0 Z " fill="#3E6DCA" transform="translate(128,191)"/>
<path d="M0 0 C1.65 0 3.3 0 5 0 C5 0.66 5 1.32 5 2 C5.99 2.33 6.98 2.66 8 3 C7.01 3.495 7.01 3.495 6 4 C5.67 4.66 5.34 5.32 5 6 C3.35 4.02 1.7 2.04 0 0 Z " fill="#1846AA" transform="translate(32,122)"/>
<path d="M0 0 C2.875 -0.125 2.875 -0.125 6 0 C6.66 0.66 7.32 1.32 8 2 C4.7 2.66 1.4 3.32 -2 4 C-1.34 2.68 -0.68 1.36 0 0 Z " fill="#3663BE" transform="translate(28,100)"/>
<path d="M0 0 C0.92538169 3.70152678 1.08174162 4.63458162 0 8 C-0.66 8 -1.32 8 -2 8 C-2.33 9.32 -2.66 10.64 -3 12 C-3.66 11.67 -4.32 11.34 -5 11 C-3.35 7.37 -1.7 3.74 0 0 Z " fill="#2454AC" transform="translate(215,157)"/>
<path d="M0 0 C1.45922693 0.11409593 2.91740598 0.24165544 4.375 0.375 C5.59316406 0.47941406 5.59316406 0.47941406 6.8359375 0.5859375 C9 1 9 1 11 3 C3.57142857 3.14285714 3.57142857 3.14285714 0 2 C0 1.34 0 0.68 0 0 Z " fill="#2556B6" transform="translate(175,39)"/>
<path d="M0 0 C2.475 0.99 2.475 0.99 5 2 C5 2.99 5 3.98 5 5 C3.35 4.67 1.7 4.34 0 4 C0 2.68 0 1.36 0 0 Z " fill="#4570D7" transform="translate(111,179)"/>
<path d="M0 0 C1.37562854 1.28965176 2.70766393 2.62689293 4 4 C4 4.66 4 5.32 4 6 C1.08482708 4.92598892 -0.77810176 4.22189824 -3 2 C-2.01 1.34 -1.02 0.68 0 0 Z " fill="#234FA4" transform="translate(41,126)"/>
<path d="M0 0 C1.98 1.65 3.96 3.3 6 5 C3 7 3 7 1 7 C1 6.01 1 5.02 1 4 C0.34 3.34 -0.32 2.68 -1 2 C-0.67 1.34 -0.34 0.68 0 0 Z " fill="#1A45A0" transform="translate(222,63)"/>
<path d="M0 0 C0.66 0.33 1.32 0.66 2 1 C0.1875 4 0.1875 4 -2 7 C-2.99 7 -3.98 7 -5 7 C-4.34 5.68 -3.68 4.36 -3 3 C-2.34 3 -1.68 3 -1 3 C-0.67 2.01 -0.34 1.02 0 0 Z " fill="#587DC2" transform="translate(203,177)"/>
<path d="M0 0 C0.33 0 0.66 0 1 0 C1 1.65 1 3.3 1 5 C1.99 5.33 2.98 5.66 4 6 C4 7.98 4 9.96 4 12 C3.731875 11.401875 3.46375 10.80375 3.1875 10.1875 C2.13952691 7.94430723 2.13952691 7.94430723 0.3125 6.5625 C-0.120625 6.046875 -0.55375 5.53125 -1 5 C-0.6875 2.3125 -0.6875 2.3125 0 0 Z " fill="#2B65DD" transform="translate(66,156)"/>
<path d="M0 0 C0.99 0.33 1.98 0.66 3 1 C2.67 3.64 2.34 6.28 2 9 C-0.29013653 5.5647952 -0.17842973 4.014669 0 0 Z " fill="#1D499A" transform="translate(247,154)"/>
<path d="M0 0 C0.33 0.66 0.66 1.32 1 2 C1.99 2 2.98 2 4 2 C4 3.32 4 4.64 4 6 C3.34 6 2.68 6 2 6 C0.61767557 4.37373596 -0.71937515 2.7074998 -2 1 C-1.34 0.67 -0.68 0.34 0 0 Z M4 1 C6 2 6 2 6 2 Z " fill="#3470E3" transform="translate(209,96)"/>
<path d="M0 0 C3.465 1.98 3.465 1.98 7 4 C7 4.33 7 4.66 7 5 C4.69 4.67 2.38 4.34 0 4 C0 2.68 0 1.36 0 0 Z " fill="#17449E" transform="translate(207,51)"/>
<path d="M0 0 C1.65 0 3.3 0 5 0 C5.33 0.99 5.66 1.98 6 3 C4.02 3.33 2.04 3.66 0 4 C0 2.68 0 1.36 0 0 Z " fill="#2958AE" transform="translate(183,224)"/>
</svg>
